<?xml version="1.0" encoding="UTF-8"?>
<svg id="Layer_1" data-name="Layer 1" xmlns="http://www.w3.org/2000/svg" viewBox="0 0 540.51 150.69">
  <defs>
    <style>
      .cls-1 {
        fill: #51b848;
      }

      .cls-2 {
        fill: #32cd32;
      }

      .cls-3 {
        fill: #0e0e0e;
      }
    </style>
  </defs>
  <g>
    <g>
      <path class="cls-2" d="M74.48,132.58c-10.4,0-18.84-25.62-18.84-57.23s8.43-57.23,18.84-57.23c7.9,0,14.66,14.76,17.46,35.69-2.73-26.65-10.38-45.84-19.39-45.84-11.3,0-20.46,30.17-20.46,67.38s9.16,67.38,20.46,67.38c9.01,0,16.66-19.19,19.39-45.84-2.8,20.93-9.56,35.69-17.46,35.69h0Z"/>
      <path class="cls-2" d="M19.78,48.35c5.2-8.71,32.37-2.96,60.68,12.84,28.31,15.81,47.05,35.68,41.85,44.39-3.95,6.61-20.55,4.89-40.7-3.23,25.24,11.04,46.25,14.23,50.76,6.68,5.65-9.46-16.79-32.22-50.13-50.82C48.91,39.61,17.3,32.19,11.65,41.66c-4.5,7.55,8.86,23.55,31.37,39.16-17.35-12.81-27.19-25.85-23.24-32.46h0Z"/>
      <path class="cls-2" d="M122.31,45.11c5.2,8.71-13.53,28.58-41.85,44.39-28.31,15.81-55.48,21.55-60.68,12.84-3.95-6.61,5.89-19.65,23.24-32.46-22.51,15.6-35.88,31.61-31.37,39.15,5.65,9.46,37.25,2.04,70.59-16.56,33.34-18.61,55.78-41.36,50.13-50.82-4.5-7.55-25.52-4.35-50.76,6.68,20.15-8.12,36.75-9.84,40.7-3.23Z"/>
    </g>
    <circle class="cls-1" cx="72.01" cy="75.35" r="4.28"/>
  </g>
  <g>
    <g>
      <g>
        <polygon class="cls-3" points="155.17 79.54 148.39 106.73 164.77 106.73 169.53 87.64 199.49 87.64 194.73 106.73 211.27 106.73 218.05 79.54 155.17 79.54"/>
        <path class="cls-3" d="M173.64,71.15l2.7-10.84h29.95l-2.7,10.84h16.54l3.2-12.83c.64-2.58.57-4.99-.21-7.16-.79-2.17-2.13-3.94-3.99-5.24-1.86-1.3-4.12-1.96-6.73-1.96h-34.81c-2.47,0-4.92.62-7.3,1.84-2.34,1.2-4.38,2.82-6.08,4.83-1.72,2.04-2.91,4.34-3.54,6.84l-3.41,13.68h16.38Z"/>
      </g>
      <g>
        <polygon class="cls-3" points="246.14 71.15 262.6 71.15 265.3 60.32 288.51 60.32 292.59 43.96 229.71 43.96 225.64 60.32 248.84 60.32 246.14 71.15"/>
        <polygon class="cls-3" points="244.05 79.54 237.27 106.73 253.73 106.73 260.51 79.54 244.05 79.54"/>
      </g>
      <g>
        <path class="cls-3" d="M304.57,71.15l2.7-10.84h29.95l-2.7,10.84h16.54l3.2-12.83c.64-2.58.57-4.99-.21-7.16-.79-2.17-2.13-3.94-3.99-5.24-1.86-1.3-4.1-1.96-6.65-1.96h-34.89c-2.47,0-4.92.62-7.3,1.84-2.34,1.2-4.38,2.82-6.08,4.83-1.72,2.04-2.91,4.34-3.54,6.84l-3.41,13.68h16.38Z"/>
        <path class="cls-3" d="M332.43,79.54l-2.7,10.84h-29.95l2.7-10.84h-16.38l-3.2,12.83c-.63,2.52-.57,4.9.17,7.08.75,2.22,2.1,4.02,4,5.33,1.88,1.3,4.13,1.96,6.68,1.96h34.89c2.47,0,4.92-.62,7.27-1.84,2.3-1.2,4.35-2.83,6.08-4.86,1.76-2.07,2.96-4.35,3.57-6.8l3.41-13.68h-16.54Z"/>
      </g>
      <g>
        <polygon class="cls-3" points="447.02 71.15 453.8 43.96 437.58 43.96 430.8 71.15 447.02 71.15"/>
        <polygon class="cls-3" points="428.71 79.54 421.93 106.73 438.15 106.73 444.93 79.54 428.71 79.54"/>
      </g>
      <g>
        <path class="cls-3" d="M462.11,90.34c0-.09.01-.25.07-.5l2.57-10.3h-16.38l-3.2,12.83c-.64,2.58-.59,4.98.16,7.13.76,2.19,2.09,3.96,3.95,5.26,1.86,1.3,4.12,1.97,6.73,1.97h48.28l4.08-16.35h-45.87c-.2,0-.33-.02-.41-.04Z"/>
        <path class="cls-3" d="M470.8,43.96c-2.52,0-5,.62-7.35,1.84-2.31,1.2-4.33,2.82-6.03,4.83-1.72,2.04-2.91,4.34-3.54,6.84l-3.41,13.68h16.38l2.36-9.45c.09-.37.26-.85.57-1.09.26-.2.63-.3,1.11-.3h44.99l4.08-16.35h-49.16Z"/>
      </g>
      <g>
        <polygon class="cls-3" points="417.2 43.96 392.33 66.9 378.82 43.96 363.27 43.96 356.49 71.15 372.53 71.15 372.87 71.15 373.95 71.15 409.59 71.15 410.15 71.15 410.9 71.15 426.61 71.15 433.39 43.96 417.2 43.96"/>
        <polygon class="cls-3" points="347.62 106.73 364 106.73 370.78 79.54 354.4 79.54 347.62 106.73"/>
        <polygon class="cls-3" points="401.28 106.73 417.74 106.73 424.52 79.54 408.06 79.54 401.28 106.73"/>
        <polygon class="cls-3" points="386.55 92.34 400.47 79.54 378.94 79.54 386.55 92.34"/>
      </g>
    </g>
    <path class="cls-3" d="M503.49,69.48h0s-9.45,0-9.45,0l-2.98,11.97h9.45c10.96,0,28.58-3.51,29.2-5.98.62-2.47-15.26-5.98-26.22-5.98Z"/>
  </g>
</svg>