<?xml version="1.0" encoding="UTF-8"?>
<svg id="Layer_1" data-name="Layer 1" xmlns="http://www.w3.org/2000/svg" viewBox="0 0 540.51 150.69">
  <defs>
    <style>
      .cls-1 {
        fill: #32cd32;
      }

      .cls-2 {
        fill: #0e0e0e;
      }
    </style>
  </defs>
  <g>
    <g>
      <path class="cls-2" d="M69.98,132.58c-10.4,0-18.84-25.62-18.84-57.23s8.43-57.23,18.84-57.23c7.9,0,14.66,14.76,17.46,35.69-2.73-26.65-10.38-45.84-19.39-45.84-11.3,0-20.46,30.17-20.46,67.38s9.16,67.38,20.46,67.38c9.01,0,16.66-19.19,19.39-45.84-2.8,20.93-9.56,35.69-17.46,35.69h0Z"/>
      <path class="cls-2" d="M15.28,48.35c5.2-8.71,32.37-2.96,60.68,12.84,28.31,15.81,47.05,35.68,41.85,44.39-3.95,6.61-20.55,4.89-40.7-3.23,25.24,11.04,46.25,14.23,50.76,6.68,5.65-9.46-16.79-32.22-50.13-50.82C44.41,39.61,12.8,32.19,7.15,41.66c-4.5,7.55,8.86,23.55,31.37,39.16-17.35-12.81-27.19-25.85-23.24-32.46h0Z"/>
      <path class="cls-2" d="M117.81,45.11c5.2,8.71-13.53,28.58-41.85,44.39-28.31,15.81-55.48,21.55-60.68,12.84-3.95-6.61,5.89-19.65,23.24-32.46-22.51,15.6-35.88,31.61-31.37,39.15,5.65,9.46,37.25,2.04,70.59-16.56,33.34-18.61,55.78-41.36,50.13-50.82-4.5-7.55-25.52-4.35-50.76,6.68,20.15-8.12,36.75-9.84,40.7-3.23Z"/>
    </g>
    <circle class="cls-2" cx="67.51" cy="75.35" r="4.28"/>
  </g>
  <g>
    <g>
      <g>
        <polygon class="cls-1" points="159.67 79.54 152.89 106.73 169.27 106.73 174.03 87.64 203.99 87.64 199.23 106.73 215.77 106.73 222.55 79.54 159.67 79.54"/>
        <path class="cls-1" d="M178.14,71.15l2.7-10.84h29.95l-2.7,10.84h16.54l3.2-12.83c.64-2.58.57-4.99-.21-7.16-.79-2.17-2.13-3.94-3.99-5.24-1.86-1.3-4.12-1.96-6.73-1.96h-34.81c-2.47,0-4.92.62-7.3,1.84-2.34,1.2-4.38,2.82-6.08,4.83-1.72,2.04-2.91,4.34-3.54,6.84l-3.41,13.68h16.38Z"/>
      </g>
      <g>
        <polygon class="cls-1" points="250.64 71.15 267.1 71.15 269.8 60.32 293.01 60.32 297.09 43.96 234.21 43.96 230.14 60.32 253.34 60.32 250.64 71.15"/>
        <polygon class="cls-1" points="248.55 79.54 241.77 106.73 258.23 106.73 265.01 79.54 248.55 79.54"/>
      </g>
      <g>
        <path class="cls-1" d="M309.07,71.15l2.7-10.84h29.95l-2.7,10.84h16.54l3.2-12.83c.64-2.58.57-4.99-.21-7.16-.79-2.17-2.13-3.94-3.99-5.24-1.86-1.3-4.1-1.96-6.65-1.96h-34.89c-2.47,0-4.92.62-7.3,1.84-2.34,1.2-4.38,2.82-6.08,4.83-1.72,2.04-2.91,4.34-3.54,6.84l-3.41,13.68h16.38Z"/>
        <path class="cls-1" d="M336.93,79.54l-2.7,10.84h-29.95l2.7-10.84h-16.38l-3.2,12.83c-.63,2.52-.57,4.9.17,7.08.75,2.22,2.1,4.02,4,5.33,1.88,1.3,4.13,1.96,6.68,1.96h34.89c2.47,0,4.92-.62,7.27-1.84,2.3-1.2,4.35-2.83,6.08-4.86,1.76-2.07,2.96-4.35,3.57-6.8l3.41-13.68h-16.54Z"/>
      </g>
      <g>
        <polygon class="cls-1" points="451.52 71.15 458.3 43.96 442.08 43.96 435.3 71.15 451.52 71.15"/>
        <polygon class="cls-1" points="433.21 79.54 426.43 106.73 442.65 106.73 449.43 79.54 433.21 79.54"/>
      </g>
      <g>
        <path class="cls-1" d="M466.61,90.34c0-.09.01-.25.07-.5l2.57-10.3h-16.38l-3.2,12.83c-.64,2.58-.59,4.98.16,7.13.76,2.19,2.09,3.96,3.95,5.26,1.86,1.3,4.12,1.97,6.73,1.97h48.28l4.08-16.35h-45.87c-.2,0-.33-.02-.41-.04Z"/>
        <path class="cls-1" d="M475.3,43.96c-2.52,0-5,.62-7.35,1.84-2.31,1.2-4.33,2.82-6.03,4.83-1.72,2.04-2.91,4.34-3.54,6.84l-3.41,13.68h16.38l2.36-9.45c.09-.37.26-.85.57-1.09.26-.2.63-.3,1.11-.3h44.99l4.08-16.35h-49.16Z"/>
      </g>
      <g>
        <polygon class="cls-1" points="421.7 43.96 396.83 66.9 383.32 43.96 367.77 43.96 360.99 71.15 377.03 71.15 377.37 71.15 378.45 71.15 414.09 71.15 414.65 71.15 415.4 71.15 431.11 71.15 437.89 43.96 421.7 43.96"/>
        <polygon class="cls-1" points="352.12 106.73 368.5 106.73 375.28 79.54 358.9 79.54 352.12 106.73"/>
        <polygon class="cls-1" points="405.78 106.73 422.24 106.73 429.02 79.54 412.56 79.54 405.78 106.73"/>
        <polygon class="cls-1" points="391.05 92.34 404.97 79.54 383.44 79.54 391.05 92.34"/>
      </g>
    </g>
    <path class="cls-2" d="M507.99,69.48h0s-9.45,0-9.45,0l-2.98,11.97h9.45c10.96,0,28.58-3.51,29.2-5.98.62-2.47-15.26-5.98-26.22-5.98Z"/>
  </g>
</svg>