<?xml version="1.0" encoding="UTF-8"?>
<svg id="Layer_1" xmlns="http://www.w3.org/2000/svg" version="1.1" viewBox="0 0 1000 488.3">
  <!-- Generator: Adobe Illustrator 30.1.0, SVG Export Plug-In . SVG Version: 2.1.1 Build 136)  -->
  <defs>
    <style>
      .st0 {
        fill: #51b848;
      }

      .st1 {
        fill: #fff;
      }
    </style>
  </defs>
  <g>
    <g>
      <path class="st1" d="M69.7,320c.3-1,.7-2,1.4-2.8s1.6-1.5,2.5-2c1-.5,2-.8,3-.8h22.4c1,0,1.9.2,2.6.8.7.5,1.2,1.2,1.5,2,.3.9.3,1.8,0,2.8l-7,28.1h-3.8l3.1-12.3h-26.1l-3.1,12.3h-3.8l7-28.1h0ZM96.6,332l3-12c.1-.5,0-.9-.2-1.3-.3-.4-.7-.5-1.2-.5h-22.5c-.5,0-1,.2-1.4.5-.4.4-.7.8-.9,1.3l-3,12h26.1Z"/>
      <path class="st1" d="M97.2,349h-5.9l3.1-12.3h-24l-3.1,12.3h-5.9l7.3-29.3c.3-1.2.9-2.3,1.6-3.2.8-1,1.8-1.7,2.9-2.3,1.1-.6,2.3-.9,3.5-.9h22.5c1.2,0,2.3.3,3.2.9.9.6,1.6,1.5,1.9,2.5.3,1.1.4,2.2,0,3.4l-7.2,28.8ZM93.9,347h1.7l6.8-27.3c.2-.8.2-1.6,0-2.3-.2-.6-.6-1.1-1.1-1.5-.6-.4-1.2-.6-2.1-.6h-22.5c-.9,0-1.7.2-2.6.6-.9.4-1.6,1-2.2,1.8-.6.7-1,1.5-1.3,2.4l-6.7,26.8h1.7l3.1-12.3h28.2l-3.1,12.3ZM97.4,333h-28.2l3.3-13.2c.2-.7.6-1.3,1.2-1.8.6-.5,1.3-.8,2-.8h22.5c.8,0,1.5.3,2,.9.3.4.6,1.1.4,2.1l-3.2,12.7ZM71.8,331h24l2.8-11.2c0-.3,0-.4,0-.4,0,0-.1-.1-.4-.1h-22.5c-.2,0-.4,0-.8.3-.3.2-.4.5-.5.8l-2.7,10.7Z"/>
    </g>
    <g>
      <path class="st1" d="M117.2,348l8.4-33.7h5.2l9.8,16.6,18.1-16.6h5.2l-8.4,33.7h-3.8l7.3-29.4-19.9,18.3-10.8-18.3-7.3,29.4h-3.8,0Z"/>
      <path class="st1" d="M156.3,349h-5.9l6.8-27.4-18.4,16.9-10.2-17.2-6.9,27.8h-4.6v-1l-1-.2,8.6-34.4h6.5l9.5,16.1,17.5-16.1h6.9l-8.9,35.7ZM153,347h1.7l7.9-31.7h-3.5l-18.8,17.2-10.2-17.2h-3.8l-7.9,31.7h1.7l7.7-31,11.4,19.3,21.5-19.7-7.8,31.4Z"/>
    </g>
    <g>
      <path class="st1" d="M176.1,348l8.4-33.7h5.2l9.8,16.6,18.1-16.6h5.2l-8.4,33.7h-3.8l7.3-29.4-19.9,18.3-10.8-18.3-7.3,29.4h-3.8,0Z"/>
      <path class="st1" d="M215.2,349h-5.9l6.8-27.4-18.4,16.9-10.2-17.2-6.9,27.8h-4.6v-1l-1-.2,8.6-34.4h6.5l9.5,16.1,17.5-16.1h6.9l-8.9,35.7ZM211.9,347h1.7l7.9-31.7h-3.5l-18.8,17.2-10.2-17.2h-3.8l-7.9,31.7h1.7l7.7-31,11.4,19.3,21.5-19.7-7.8,31.4Z"/>
    </g>
    <g>
      <path class="st1" d="M237.8,347.3c-.7-.5-1.2-1.2-1.5-2-.3-.9-.3-1.8,0-2.8l7-28.1h3.8l-7,28.1c-.1.5,0,.9.2,1.3.3.4.6.5,1.1.5h22.4c.5,0,1-.2,1.4-.5.5-.4.7-.8.9-1.3l7-28.1h3.8l-7,28.1c-.3,1-.7,2-1.5,2.8-.7.9-1.6,1.5-2.5,2-1,.5-2,.8-3,.8h-22.4c-1,0-1.9-.2-2.6-.8h0Z"/>
      <path class="st1" d="M262.9,349h-22.5c-1.1,0-2.1-.3-2.9-.8h0l-.3-.2c-.9-.6-1.6-1.5-1.9-2.5-.4-1-.4-2.2,0-3.4l7.2-28.8h5.9l-7.3,29.3c0,.3,0,.4,0,.4,0,0,.1.1.3.1h22.5c.2,0,.4,0,.8-.3.3-.2.4-.5.5-.8l7.2-28.8h5.9l-7.3,29.3c-.3,1.2-.9,2.3-1.6,3.2-.8,1-1.8,1.7-2.9,2.3-1.1.6-2.3.9-3.5.9ZM238.2,346.4h.2c.6.5,1.2.7,2.1.7h22.5c.9,0,1.7-.2,2.6-.6.9-.4,1.6-1,2.2-1.8.6-.7,1-1.5,1.3-2.4l6.7-26.8h-1.7l-6.8,27.3c-.2.7-.6,1.3-1.2,1.8-.6.5-1.3.8-2,.8h-22.5c-.8,0-1.5-.3-1.9-.9-.3-.4-.6-1.1-.4-2.1l6.7-26.8h-1.7l-6.8,27.3c-.2.9-.2,1.6,0,2.3.2.6.5,1,1,1.4Z"/>
    </g>
    <g>
      <path class="st1" d="M289.1,348l8.4-33.7h5.2l17.4,29.4,7.3-29.4h3.8l-8.4,33.7h-5.2l-17.4-29.4-7.3,29.4h-3.8Z"/>
      <path class="st1" d="M323.6,349h-6.5l-16.4-27.8-6.9,27.8h-5.9l8.9-35.7h6.5l16.4,27.8,6.9-27.8h5.9l-8.9,35.7ZM318.2,347h3.8l7.9-31.7h-1.7l-7.7,31-18.3-31h-3.8l-7.9,31.7h1.7l7.7-31,18.3,31Z"/>
    </g>
    <g>
      <path class="st1" d="M344,348l8.4-33.7h3.8l-8.4,33.7h-3.8Z"/>
      <path class="st1" d="M348.6,349h-5.9l8.9-35.7h5.9l-8.9,35.7ZM345.3,347h1.8l7.9-31.7h-1.8l-7.9,31.7Z"/>
    </g>
    <g>
      <path class="st1" d="M382.3,348l7.5-29.9h-15l.9-3.8h33.7l-.9,3.8h-14.9l-7.5,29.9h-3.8,0Z"/>
      <path class="st1" d="M386.9,349h-5.9l7.5-29.9h-15l1.4-5.8h35.7l-1.4,5.8h-14.9l-7.4,29.9ZM383.6,347h1.7l7.4-29.9h14.9l.4-1.8h-31.6l-.4,1.8h15l-7.5,29.9Z"/>
    </g>
    <g>
      <path class="st1" d="M420.5,348l8.4-33.7h3.8l-8.4,33.7h-3.8Z"/>
      <path class="st1" d="M425.1,349h-5.9l8.9-35.7h5.9l-8.9,35.7ZM421.7,347h1.8l7.9-31.7h-1.8l-7.9,31.7Z"/>
    </g>
    <g>
      <path class="st1" d="M451,348c-1,0-1.9-.2-2.6-.8s-1.2-1.2-1.5-2c-.3-.9-.3-1.8,0-2.8l5.6-22.5c.3-1,.7-2,1.5-2.8.7-.9,1.6-1.5,2.5-2,1-.5,2-.8,3-.8h22.5c1,0,1.9.2,2.6.8s1.2,1.2,1.5,2c.3.9.3,1.8,0,2.8l-5.6,22.5c-.3,1-.7,2-1.5,2.8-.7.9-1.6,1.5-2.5,2-1,.5-2,.8-3,.8h-22.5ZM451.9,344.3h22.5c.5,0,1-.2,1.4-.5.5-.4.7-.8.9-1.3l5.6-22.5c.1-.5,0-.9-.2-1.3-.3-.4-.6-.5-1.1-.5h-22.5c-.5,0-1,.2-1.4.5-.5.4-.7.8-.9,1.3l-5.6,22.5c-.1.5,0,.9.2,1.3.3.4.6.5,1.1.5Z"/>
      <path class="st1" d="M473.4,349h-22.4c-1.2,0-2.3-.3-3.2-.9-.9-.6-1.6-1.5-1.9-2.5-.4-1-.4-2.2,0-3.4l5.6-22.4c.3-1.2.9-2.3,1.6-3.2.8-1,1.8-1.7,2.9-2.3,1.1-.6,2.3-.9,3.5-.9h22.4c1.2,0,2.3.3,3.2.9.9.6,1.6,1.5,1.9,2.5.3,1.1.4,2.2,0,3.4l-5.6,22.4c-.3,1.2-.9,2.3-1.6,3.2-.8,1-1.8,1.7-2.9,2.3-1.1.6-2.3.9-3.5.9ZM459.4,315.4c-.9,0-1.7.2-2.6.6-.9.4-1.6,1-2.2,1.8-.6.7-1,1.5-1.3,2.4l-5.6,22.4c-.2.9-.2,1.6,0,2.3.2.6.6,1.1,1.1,1.5.6.4,1.2.6,2.1.6h22.4c.9,0,1.7-.2,2.6-.6.9-.4,1.6-1,2.2-1.8.6-.7,1-1.5,1.3-2.4l5.6-22.4c.2-.8.2-1.6,0-2.3-.2-.6-.6-1.1-1.1-1.5-.6-.4-1.2-.6-2.1-.6h-22.4ZM474.4,345.3h-22.4c-.8,0-1.5-.3-2-.9-.3-.4-.6-1.1-.4-2.1l5.6-22.5c.2-.7.6-1.3,1.2-1.8.6-.5,1.3-.8,2-.8h22.5c.8,0,1.5.3,2,.9.3.4.6,1.1.4,2.1l-5.6,22.5c-.2.7-.6,1.3-1.2,1.8-.6.5-1.3.8-2,.8ZM458.4,319.2c-.2,0-.4,0-.8.3-.3.2-.4.5-.5.8l-5.6,22.4c0,.3,0,.4,0,.4,0,0,.1.1.4.1h22.4c.2,0,.4,0,.8-.3.3-.2.4-.5.5-.8l5.6-22.4c0-.3,0-.4,0-.4,0,0-.1-.1-.4-.1h-22.5Z"/>
    </g>
    <g>
      <path class="st1" d="M499.7,348l8.4-33.7h5.2l17.4,29.4,7.3-29.4h3.8l-8.4,33.7h-5.2l-17.4-29.4-7.3,29.4h-3.8,0Z"/>
      <path class="st1" d="M534.1,349h-6.5l-16.4-27.8-6.9,27.8h-5.9l8.9-35.7h6.5l16.4,27.8,6.9-27.8h5.9l-8.9,35.7ZM528.7,347h3.8l7.9-31.7h-1.7l-7.7,31-18.3-31h-3.8l-7.9,31.7h1.7l7.7-31,18.3,31Z"/>
    </g>
  </g>
  <path class="st0" d="M858.6,244.1c56.9-44.1,88.5-86.7,75.9-108.1-12.5-21.2-65.4-16-132.2,9.5-10.8-69.8-32.7-117.5-57.9-117.5s-47.3,48.3-58.1,118.8c-68.4-26.5-122.7-32.3-135.5-10.7-6.5,10.9-1.3,27.5,12.9,46.9h13.5c-4.1-10.1-4.5-18.8-.5-25.4,11.1-18.8,53.7-16.6,107.8,2.2-1,7.5-1.8,15.3-2.5,23.2h12.1c.7-6.4,1.6-12.7,2.5-18.8,23.1,8.8,47.8,20.4,72.9,34.5,25.6,14.4,48.8,29.9,68.4,45.4-19.6,15.4-42.8,30.9-68.4,45.4-25.1,14.1-49.8,25.7-72.9,34.5-.8-5.1-1.5-10.3-2.2-15.6h-12.2c.6,6.8,1.4,13.5,2.2,20-54.1,18.8-96.7,21-107.8,2.2-3.5-6-3.6-13.5-.6-22.2h-14.5c-12.5,18.1-16.8,33.4-10.6,43.7,12.8,21.5,67.1,15.8,135.5-10.7,10.7,70.5,32.7,118.8,58.1,118.8s47.1-47.8,57.9-117.5c66.8,25.5,119.7,30.7,132.2,9.5,12.7-21.4-19-63.9-75.9-108.1h0ZM775.2,189.2c-26.2-14.8-52-27.3-76.4-37.4,10.4-54.6,29.7-91.2,51.7-91.2s40,34.1,50.6,85.4c-9.1,3.5-18.4,7.3-27.9,11.5,9.7-3.9,19.1-7.4,28.2-10.4,1.8,8.8,3.4,18.2,4.7,27.9-1-9.8-2.2-19.2-3.6-28.3,50.4-16.4,89.5-17.5,100.1.4,11,18.6-11.7,53-54.6,88.9-21.5-15.9-46-31.8-72.8-46.9h0ZM902.5,341.1c-10.6,17.9-49.7,16.8-100.1.4,1.4-9.1,2.6-18.5,3.6-28.3-1.3,9.8-2.8,19.1-4.7,27.9-9.1-3-18.5-6.4-28.2-10.4,9.5,4.2,18.8,8,27.9,11.5-10.6,51.3-29.3,85.4-50.6,85.4s-41.4-36.7-51.7-91.2c24.3-10.1,50.2-22.6,76.4-37.4,26.8-15.1,51.3-31,72.8-46.9,42.9,35.9,65.6,70.3,54.6,88.9h0Z"/>
  <g>
    <g>
      <polygon class="st1" points="74.8 252.6 62.7 301.2 92 301.2 100.5 267 154.1 267 145.6 301.2 175.2 301.2 187.3 252.6 74.8 252.6"/>
      <path class="st1" d="M107.9,237.6l4.8-19.4h53.6l-4.8,19.4h29.6l5.7-22.9c1.1-4.6,1-8.9-.4-12.8-1.4-3.9-3.8-7-7.1-9.4-3.3-2.3-7.4-3.5-12-3.5h-62.2c-4.4,0-8.8,1.1-13.1,3.3-4.2,2.1-7.8,5.1-10.9,8.6-3.1,3.6-5.2,7.8-6.3,12.2l-6.1,24.5h29.3Z"/>
    </g>
    <g>
      <polygon class="st1" points="237.5 237.6 267 237.6 271.8 218.2 313.3 218.2 320.6 188.9 208.2 188.9 200.9 218.2 242.4 218.2 237.5 237.6"/>
      <polygon class="st1" points="233.8 252.6 221.7 301.2 251.1 301.2 263.2 252.6 233.8 252.6"/>
    </g>
    <g>
      <path class="st1" d="M342,237.6l4.8-19.4h53.6l-4.8,19.4h29.6l5.7-22.9c1.1-4.6,1-8.9-.4-12.8-1.4-3.9-3.8-7-7.1-9.4-3.3-2.3-7.3-3.5-11.9-3.5h-62.4c-4.4,0-8.8,1.1-13.1,3.3-4.2,2.1-7.8,5.1-10.9,8.6-3.1,3.6-5.2,7.8-6.3,12.2l-6.1,24.5h29.3Z"/>
      <path class="st1" d="M391.9,252.6l-4.8,19.4h-53.6l4.8-19.4h-29.3l-5.7,22.9c-1.1,4.5-1,8.8.3,12.7,1.4,4,3.8,7.2,7.2,9.5,3.4,2.3,7.4,3.5,11.9,3.5h62.4c4.4,0,8.8-1.1,13-3.3,4.1-2.1,7.8-5.1,10.9-8.7,3.1-3.7,5.3-7.8,6.4-12.2l6.1-24.5h-29.6,0Z"/>
    </g>
    <g>
      <polygon class="st1" points="596.8 237.6 608.9 188.9 579.9 188.9 567.8 237.6 596.8 237.6"/>
      <polygon class="st1" points="564 252.6 551.9 301.2 580.9 301.2 593 252.6 564 252.6"/>
    </g>
    <g>
      <path class="st1" d="M623.8,271.9c0-.2,0-.5.1-.9l4.6-18.4h-29.3l-5.7,22.9c-1.2,4.6-1,8.9.3,12.8,1.4,3.9,3.7,7.1,7.1,9.4,3.3,2.3,7.4,3.5,12,3.5h86.3l7.3-29.2h-82c-.3,0-.6,0-.7,0h0Z"/>
      <path class="st1" d="M639.3,188.9c-4.5,0-8.9,1.1-13.2,3.3-4.1,2.1-7.8,5.1-10.8,8.6-3.1,3.6-5.2,7.8-6.3,12.2l-6.1,24.5h29.3l4.2-16.9c.2-.6.5-1.5,1-1.9.5-.4,1.1-.5,2-.5h80.5l7.3-29.2h-87.9,0Z"/>
    </g>
    <g>
      <polygon class="st1" points="543.5 188.9 499 229.9 474.8 188.9 447 188.9 434.9 237.6 463.6 237.6 464.2 237.6 466.1 237.6 529.8 237.6 530.8 237.6 532.2 237.6 560.3 237.6 572.4 188.9 543.5 188.9"/>
      <polygon class="st1" points="419 301.2 448.3 301.2 460.4 252.6 431.1 252.6 419 301.2"/>
      <polygon class="st1" points="515 301.2 544.4 301.2 556.5 252.6 527.1 252.6 515 301.2"/>
      <polygon class="st1" points="488.6 275.5 513.5 252.6 475 252.6 488.6 275.5"/>
    </g>
  </g>
  <path class="st1" d="M697.8,234.6h-16.9l-5.3,21.4h16.9c19.6,0,51.1-6.3,52.2-10.7,1.1-4.4-27.3-10.7-46.9-10.7h0Z"/>
</svg>