<?xml version="1.0" encoding="UTF-8"?>
<svg id="Layer_1" data-name="Layer 1" xmlns="http://www.w3.org/2000/svg" viewBox="0 0 1000 488.3">
  <defs>
    <style>
      .cls-1 {
        fill: #151515;
      }

      .cls-2 {
        fill: #32cd32;
      }

      .cls-3 {
        fill: #2a2a2a;
      }
    </style>
  </defs>
  <g>
    <path class="cls-3" d="M69.72,319.99c.26-1.03.74-1.97,1.45-2.83.71-.86,1.56-1.54,2.54-2.03.98-.5,1.99-.75,3.02-.75h22.45c1.03,0,1.91.25,2.64.75.73.5,1.24,1.18,1.53,2.03.28.86.3,1.8.04,2.83l-7,28.06h-3.79l3.07-12.3h-26.09l-3.07,12.3h-3.79l7-28.06ZM96.62,331.96l2.98-11.97c.12-.5.05-.93-.22-1.29-.27-.36-.65-.54-1.15-.54h-22.45c-.5,0-.97.18-1.42.54-.45.36-.73.79-.86,1.29l-2.98,11.97h26.09Z"/>
    <path class="cls-3" d="M117.21,348.05l8.39-33.67h5.19l9.83,16.65,18.13-16.65h5.19l-8.39,33.67h-3.79l7.32-29.37-19.94,18.28-10.83-18.28-7.32,29.37h-3.79Z"/>
    <path class="cls-3" d="M176.08,348.05l8.39-33.67h5.19l9.83,16.65,18.13-16.65h5.19l-8.39,33.67h-3.79l7.32-29.37-19.94,18.28-10.83-18.28-7.32,29.37h-3.79Z"/>
    <path class="cls-3" d="M237.83,347.3c-.73-.5-1.24-1.18-1.53-2.03-.29-.86-.3-1.8-.04-2.83l7-28.06h3.79l-7,28.06c-.12.5-.05.93.22,1.29.27.36.65.54,1.15.54h22.45c.5,0,.97-.18,1.42-.54.45-.36.73-.79.86-1.29l7-28.06h3.79l-7,28.06c-.26,1.03-.74,1.97-1.45,2.83-.71.86-1.56,1.54-2.54,2.03-.98.5-1.99.75-3.02.75h-22.45c-1.03,0-1.91-.25-2.64-.75Z"/>
    <path class="cls-3" d="M289.15,348.05l8.39-33.67h5.19l17.37,29.37,7.32-29.37h3.79l-8.39,33.67h-5.19l-17.37-29.37-7.32,29.37h-3.79Z"/>
    <path class="cls-3" d="M344,348.05l8.39-33.67h3.83l-8.39,33.67h-3.83Z"/>
    <path class="cls-3" d="M382.29,348.05l7.45-29.88h-14.96l.94-3.79h33.67l-.94,3.79h-14.92l-7.45,29.88h-3.79Z"/>
    <path class="cls-3" d="M420.45,348.05l8.39-33.67h3.83l-8.39,33.67h-3.83Z"/>
    <path class="cls-3" d="M450.99,348.05c-1.03,0-1.91-.25-2.64-.75-.73-.5-1.24-1.18-1.53-2.03-.29-.86-.3-1.8-.04-2.83l5.6-22.45c.26-1.03.74-1.97,1.45-2.83.71-.86,1.56-1.54,2.54-2.03.98-.5,1.99-.75,3.02-.75h22.45c1.03,0,1.91.25,2.64.75.73.5,1.24,1.18,1.53,2.03.28.86.3,1.8.04,2.83l-5.6,22.45c-.26,1.03-.74,1.97-1.45,2.83-.71.86-1.56,1.54-2.54,2.03-.98.5-1.99.75-3.02.75h-22.45ZM451.93,344.26h22.45c.5,0,.97-.18,1.42-.54.45-.36.73-.79.86-1.29l5.6-22.45c.12-.5.05-.93-.22-1.29-.27-.36-.65-.54-1.15-.54h-22.45c-.5,0-.97.18-1.42.54-.45.36-.73.79-.86,1.29l-5.6,22.45c-.12.5-.05.93.22,1.29.27.36.65.54,1.15.54Z"/>
    <path class="cls-3" d="M499.66,348.05l8.39-33.67h5.19l17.37,29.37,7.32-29.37h3.79l-8.39,33.67h-5.19l-17.37-29.37-7.32,29.37h-3.79Z"/>
  </g>
  <path class="cls-2" d="M858.63,244.15c56.86-44.14,88.52-86.68,75.88-108.06-12.55-21.21-65.39-15.97-132.24,9.48-10.78-69.78-32.65-117.54-57.87-117.54s-47.35,48.31-58.06,118.77c-68.36-26.51-122.7-32.26-135.45-10.71-6.48,10.95-1.32,27.46,12.88,46.89h13.47c-4.08-10.06-4.48-18.75-.54-25.41,11.11-18.77,53.74-16.6,107.81,2.22-.96,7.52-1.79,15.26-2.49,23.18h12.09c.74-6.42,1.58-12.68,2.54-18.75,23.07,8.81,47.84,20.42,72.9,34.54,25.64,14.44,48.8,29.95,68.44,45.38-19.64,15.43-42.8,30.94-68.44,45.38-25.06,14.12-49.83,25.73-72.9,34.54-.8-5.07-1.52-10.28-2.17-15.6h-12.17c.64,6.82,1.37,13.52,2.2,20.03-54.07,18.82-96.7,21-107.81,2.22-3.52-5.95-3.57-13.53-.63-22.25h-14.55c-12.49,18.06-16.76,33.38-10.64,43.73,12.75,21.55,67.09,15.8,135.45-10.71,10.71,70.46,32.69,118.77,58.06,118.77s47.09-47.75,57.87-117.54c66.85,25.45,119.69,30.69,132.24,9.48,12.65-21.38-19.02-63.92-75.88-108.06ZM775.21,189.21c-26.19-14.75-52.04-27.31-76.39-37.4,10.38-54.55,29.66-91.22,51.74-91.22s39.97,34.08,50.58,85.41c-9.08,3.48-18.41,7.32-27.93,11.53,9.68-3.94,19.1-7.4,28.17-10.38,1.8,8.83,3.36,18.16,4.65,27.91-.99-9.76-2.18-19.19-3.56-28.27,50.37-16.38,89.51-17.49,100.08.37,11,18.58-11.68,53.01-54.57,88.9-21.46-15.87-46-31.79-72.75-46.86ZM902.53,341.13c-10.57,17.87-49.71,16.76-100.08.37,1.38-9.08,2.58-18.52,3.56-28.27-1.29,9.75-2.85,19.08-4.65,27.91-9.07-2.98-18.49-6.44-28.17-10.38,9.52,4.21,18.85,8.05,27.93,11.53-10.61,51.33-29.3,85.41-50.58,85.41s-41.36-36.66-51.74-91.22c24.35-10.09,50.2-22.65,76.39-37.4,26.75-15.07,51.3-30.99,72.75-46.86,42.89,35.89,65.57,70.32,54.57,88.9Z"/>
  <g>
    <g>
      <polygon points="74.85 252.55 62.73 301.17 92.02 301.17 100.53 267.03 154.1 267.03 145.59 301.17 175.17 301.17 187.3 252.55 74.85 252.55"/>
      <path d="M107.89,237.55l4.83-19.38h53.56l-4.83,19.38h29.59l5.72-22.94c1.15-4.62,1.02-8.92-.38-12.8-1.41-3.89-3.81-7.04-7.13-9.38-3.33-2.33-7.37-3.51-12.03-3.51h-62.25c-4.41,0-8.81,1.11-13.06,3.29-4.18,2.14-7.84,5.05-10.88,8.64-3.08,3.64-5.21,7.76-6.33,12.23l-6.1,24.46h29.29Z"/>
    </g>
    <g>
      <polygon points="237.54 237.55 266.98 237.55 271.81 218.17 313.31 218.17 320.6 188.92 208.16 188.92 200.87 218.17 242.37 218.17 237.54 237.55"/>
      <polygon points="233.8 252.55 221.67 301.17 251.11 301.17 263.24 252.55 233.8 252.55"/>
    </g>
    <g>
      <path d="M342.03,237.55l4.83-19.38h53.57l-4.83,19.38h29.59l5.72-22.94c1.15-4.62,1.02-8.92-.38-12.8-1.41-3.89-3.81-7.04-7.14-9.38-3.33-2.33-7.33-3.51-11.89-3.51h-62.4c-4.41,0-8.81,1.11-13.06,3.29-4.18,2.14-7.84,5.05-10.87,8.64-3.08,3.64-5.21,7.76-6.33,12.24l-6.1,24.46h29.29Z"/>
      <path d="M391.86,252.55l-4.83,19.38h-53.57l4.83-19.38h-29.29l-5.72,22.94c-1.12,4.51-1.02,8.77.3,12.66,1.35,3.98,3.76,7.18,7.16,9.53,3.36,2.32,7.38,3.5,11.94,3.5h62.4c4.42,0,8.79-1.11,13-3.3,4.12-2.14,7.78-5.06,10.87-8.7,3.15-3.69,5.3-7.79,6.39-12.17l6.1-24.46h-29.59Z"/>
    </g>
    <g>
      <polygon points="596.78 237.55 608.9 188.92 579.91 188.92 567.78 237.55 596.78 237.55"/>
      <polygon points="564.04 252.55 551.92 301.17 580.91 301.17 593.04 252.55 564.04 252.55"/>
    </g>
    <g>
      <path d="M623.78,271.86c0-.17.02-.45.13-.89l4.59-18.43h-29.29l-5.72,22.94c-1.15,4.61-1.05,8.9.29,12.75,1.36,3.91,3.74,7.08,7.07,9.41,3.32,2.33,7.37,3.52,12.04,3.52h86.34l7.29-29.25h-82.02c-.35,0-.59-.03-.73-.06Z"/>
      <path d="M639.31,188.92c-4.51,0-8.94,1.11-13.15,3.3-4.12,2.14-7.75,5.05-10.79,8.63-3.08,3.64-5.21,7.76-6.33,12.24l-6.1,24.46h29.29l4.21-16.9c.16-.65.47-1.52,1.03-1.94.47-.36,1.12-.53,1.99-.53h80.46l7.29-29.25h-87.91Z"/>
    </g>
    <g>
      <polygon points="543.46 188.92 498.98 229.94 474.81 188.92 447.01 188.92 434.89 237.55 463.57 237.55 464.18 237.55 466.11 237.55 529.84 237.55 530.84 237.55 532.18 237.55 560.28 237.55 572.41 188.92 543.46 188.92"/>
      <polygon points="419.02 301.17 448.32 301.17 460.44 252.55 431.15 252.55 419.02 301.17"/>
      <polygon points="514.98 301.17 544.42 301.17 556.54 252.55 527.1 252.55 514.98 301.17"/>
      <polygon points="488.64 275.45 513.54 252.55 475.03 252.55 488.64 275.45"/>
    </g>
  </g>
  <path class="cls-1" d="M697.77,234.56h0s-16.9,0-16.9,0l-5.34,21.4h16.9c19.6,0,51.12-6.27,52.22-10.7,1.1-4.42-27.29-10.69-46.89-10.7Z"/>
</svg>