<?xml version="1.0" encoding="UTF-8"?>
<svg xmlns="http://www.w3.org/2000/svg" viewBox="0 0 1000 1000">
  <defs>
    <style>
      .cls-1 {
        fill: #51b848;
      }

      .cls-2 {
        isolation: isolate;
      }

      .cls-3 {
        mix-blend-mode: darken;
      }

      .cls-4 {
        fill: #0e0e0e;
      }
    </style>
  </defs>
  <g class="cls-2">
    <g id="Layer_1" data-name="Layer 1">
      <g class="cls-3">
        <path class="cls-1" d="M810.11,500.02c128.29-99.59,199.72-195.57,171.2-243.81-28.32-47.85-147.53-36.03-298.36,21.39C658.63,120.17,609.29,12.41,552.39,12.41s-106.83,109-131,267.97c-154.24-59.81-276.84-72.79-305.61-24.16-14.62,24.71-2.98,61.96,29.06,105.79h30.39c-9.21-22.7-10.11-42.3-1.22-57.33,25.07-42.35,121.25-37.45,243.24,5.01-2.17,16.97-4.04,34.43-5.62,52.3h27.28c1.67-14.48,3.56-28.61,5.73-42.3,52.05,19.88,107.94,46.07,164.48,77.93,57.85,32.58,110.1,67.57,154.42,102.39-44.31,34.81-96.57,69.81-154.42,102.39-56.54,31.86-112.43,58.05-164.48,77.93-1.8-11.44-3.43-23.19-4.9-35.2h-27.46c1.44,15.39,3.09,30.5,4.96,45.19-121.99,42.46-218.18,47.38-243.24,5.01-7.94-13.42-8.05-30.53-1.42-50.2h-32.83c-28.18,40.75-37.81,75.31-24.01,98.66,28.77,48.62,151.37,35.65,305.61-24.16,24.16,158.97,73.76,267.97,131,267.97s106.25-107.73,130.57-265.2c150.83,57.42,270.05,69.24,298.36,21.39,28.54-48.24-42.91-144.22-171.2-243.81l.02.05ZM621.9,376.07c-59.09-33.28-117.41-61.62-172.35-84.38,23.42-123.08,66.92-205.81,116.74-205.81s90.18,76.89,114.12,192.7c-20.49,7.85-41.54,16.52-63.02,26.01,21.84-8.89,43.09-16.7,63.56-23.42,4.06,19.92,7.58,40.97,10.49,62.97-2.23-22.02-4.92-43.3-8.03-63.78,113.65-36.96,201.95-39.46,225.8.83,24.82,41.92-26.35,119.6-123.12,200.58-48.42-35.81-103.79-71.73-164.14-105.73l-.05.02ZM909.16,718.83c-23.85,40.32-112.16,37.81-225.8.83,3.11-20.49,5.82-41.79,8.03-63.78-2.91,22-6.43,43.05-10.49,62.97-20.46-6.72-41.72-14.53-63.56-23.42,21.48,9.5,42.53,18.16,63.02,26.01-23.94,115.81-66.11,192.7-114.12,192.7s-93.32-82.71-116.74-205.81c54.94-22.77,113.26-51.1,172.35-84.38,60.35-34,115.74-69.92,164.14-105.73,96.77,80.98,147.94,158.66,123.12,200.58l.05.02Z"/>
        <g>
          <polygon class="cls-4" points="267.88 515.53 246.1 602.92 298.74 602.92 314.04 541.56 410.32 541.56 395.02 602.92 448.19 602.92 469.99 515.53 267.88 515.53"/>
          <path class="cls-4" d="M327.26,488.57l8.68-34.83h96.26l-8.68,34.83h53.18l10.28-41.23c2.07-8.3,1.83-16.03-.68-23.01-2.53-6.99-6.85-12.65-12.81-16.86-5.99-4.19-13.25-6.31-21.62-6.31h-111.88c-7.93,0-15.83,2-23.47,5.91-7.51,3.85-14.09,9.08-19.55,15.53-5.54,6.54-9.36,13.95-11.38,21.98l-10.96,43.96h52.64v.02Z"/>
        </g>
        <g>
          <polygon class="cls-4" points="34.23 515.53 12.45 602.92 65.09 602.92 80.39 541.56 176.67 541.56 161.37 602.92 214.54 602.92 236.34 515.53 34.23 515.53"/>
          <path class="cls-4" d="M93.62,488.57l8.68-34.83h96.26l-8.68,34.83h53.18l10.28-41.23c2.07-8.3,1.83-16.03-.68-23.01-2.53-6.99-6.85-12.65-12.81-16.86-5.99-4.19-13.25-6.31-21.62-6.31h-111.88c-7.93,0-15.83,2-23.47,5.91-7.51,3.85-14.09,9.08-19.55,15.53-5.54,6.54-9.36,13.95-11.38,21.98l-10.96,43.96h52.64v.02Z"/>
        </g>
        <path class="cls-4" d="M542.86,488.53h-21.95l-6.93,27.79h21.95c25.45,0,66.38-8.14,67.81-13.89,1.43-5.74-35.44-13.88-60.89-13.89h.01Z"/>
      </g>
    </g>
  </g>
</svg>