<?xml version="1.0" encoding="UTF-8"?>
<svg id="Layer_1" data-name="Layer 1" xmlns="http://www.w3.org/2000/svg" viewBox="0 0 300 300">
  <path d="M296,4v292H4V4h292M300,0H0v300h300V0h0Z"/>
  <g>
    <g>
      <path d="M106.44,85.34l-39.39,114.29h-23.82l49.63-131.86h15.21l-1.63,17.57ZM137.5,150.73v18.02h-71.72v-18.02h71.72ZM139.4,199.63l-39.48-114.29-1.72-17.57h15.31l49.81,131.86h-23.91Z"/>
      <path d="M234.31,140.04l.18,13.49h-15.67c-4.05,0-7.61.38-10.69,1.13-3.08.76-5.65,1.86-7.7,3.31-2.05,1.45-3.59,3.2-4.62,5.25-1.03,2.05-1.54,4.38-1.54,6.97s.6,4.97,1.81,7.11c1.21,2.14,2.97,3.82,5.3,5.03,2.32,1.21,5.15,1.81,8.47,1.81,4.47,0,8.38-.92,11.73-2.76,3.35-1.84,5.99-4.1,7.92-6.79,1.93-2.69,2.96-5.24,3.08-7.65l7.06,9.69c-.72,2.48-1.96,5.13-3.71,7.97-1.75,2.84-4.03,5.54-6.84,8.1-2.81,2.57-6.16,4.66-10.05,6.29-3.89,1.63-8.38,2.45-13.45,2.45-6.4,0-12.11-1.28-17.12-3.85-5.01-2.57-8.94-6.04-11.77-10.41-2.84-4.38-4.26-9.34-4.26-14.9,0-5.19.98-9.8,2.94-13.81,1.96-4.01,4.86-7.38,8.69-10.1,3.83-2.72,8.53-4.78,14.08-6.2,5.55-1.42,11.89-2.13,19.02-2.13h17.12ZM231.14,179.98v-46.73c0-3.5-.63-6.52-1.9-9.06-1.27-2.54-3.19-4.5-5.75-5.89-2.57-1.39-5.78-2.08-9.64-2.08-3.56,0-6.64.6-9.24,1.81-2.6,1.21-4.62,2.84-6.07,4.89-1.45,2.05-2.17,4.38-2.17,6.97h-21.73c0-3.86.94-7.61,2.81-11.23,1.87-3.62,4.59-6.85,8.15-9.69,3.56-2.84,7.82-5.07,12.77-6.7,4.95-1.63,10.51-2.45,16.66-2.45,7.37,0,13.9,1.24,19.61,3.71,5.71,2.48,10.2,6.2,13.49,11.18,3.29,4.98,4.94,11.22,4.94,18.7v43.56c0,4.47.32,8.47.95,12s1.55,6.6,2.76,9.19v1.45h-22.37c-1.03-2.35-1.83-5.36-2.4-9.01-.57-3.65-.86-7.2-.86-10.64Z"/>
    </g>
    <g>
      <path d="M51.59,209.99l-5.09,14.76h-3.08l6.41-17.03h1.96l-.21,2.27ZM55.6,218.43v2.33h-9.26v-2.33h9.26ZM55.85,224.75l-5.1-14.76-.22-2.27h1.98l6.43,17.03h-3.09Z"/>
      <path d="M66.16,212.09v2.06h-7.13v-2.06h7.13ZM61.09,209h2.82v12.26c0,.39.06.69.17.9.11.21.27.34.47.41.2.07.44.1.71.1.19,0,.38-.01.56-.04.18-.02.32-.05.43-.07v2.15c-.22.07-.49.13-.8.19s-.66.08-1.06.08c-.65,0-1.22-.11-1.72-.34-.5-.23-.89-.61-1.17-1.13-.28-.52-.42-1.22-.42-2.08v-12.43Z"/>
      <path d="M67.52,218.56v-.27c0-.91.13-1.76.4-2.54s.65-1.47,1.15-2.05c.5-.58,1.12-1.03,1.85-1.36.73-.32,1.55-.49,2.47-.49s1.76.16,2.49.49c.73.32,1.35.78,1.85,1.36.51.58.89,1.26,1.16,2.05s.4,1.63.4,2.54v.27c0,.91-.13,1.76-.4,2.54s-.65,1.46-1.16,2.04c-.51.58-1.12,1.03-1.85,1.36-.73.32-1.55.48-2.47.48s-1.76-.16-2.49-.48c-.73-.32-1.35-.78-1.85-1.36-.51-.58-.89-1.26-1.16-2.04s-.4-1.63-.4-2.54ZM70.34,218.29v.27c0,.57.06,1.11.18,1.61.12.51.3.95.55,1.33.25.38.57.68.96.9.39.22.85.33,1.39.33s.98-.11,1.36-.33c.39-.22.7-.52.95-.9.25-.38.43-.83.56-1.33.12-.51.18-1.04.18-1.61v-.27c0-.56-.06-1.09-.18-1.6-.12-.5-.31-.95-.56-1.34s-.57-.7-.96-.92c-.39-.22-.84-.33-1.37-.33s-.99.11-1.37.33c-.39.22-.7.53-.95.92s-.43.84-.55,1.34c-.12.5-.18,1.04-.18,1.6Z"/>
      <path d="M84.46,214.67v10.08h-2.82v-12.65h2.65l.16,2.57ZM84.01,217.95h-.96c0-.88.11-1.69.33-2.43.22-.74.54-1.39.96-1.94.42-.55.95-.97,1.57-1.27.63-.3,1.35-.45,2.18-.45.58,0,1.11.08,1.58.25.48.17.9.43,1.25.79.35.36.63.82.82,1.38.19.56.29,1.24.29,2.03v8.43h-2.82v-8.19c0-.62-.09-1.1-.27-1.45-.18-.35-.44-.6-.78-.75-.34-.15-.74-.23-1.21-.23-.53,0-.98.1-1.35.31-.37.2-.67.48-.91.83-.23.35-.41.76-.51,1.22-.11.46-.16.95-.16,1.47ZM91.85,217.2l-1.32.29c0-.76.11-1.49.32-2.17.21-.68.53-1.28.95-1.8.42-.52.93-.93,1.55-1.22.62-.3,1.32-.45,2.12-.45.65,0,1.23.09,1.74.26.51.18.95.45,1.3.82.36.37.63.86.82,1.46.19.6.28,1.32.28,2.16v8.19h-2.83v-8.2c0-.64-.09-1.13-.27-1.49s-.44-.59-.78-.73-.74-.21-1.2-.21c-.44,0-.82.08-1.15.24-.33.16-.61.38-.84.67-.23.28-.4.61-.51.98s-.17.76-.17,1.19Z"/>
      <path d="M102.51,208.77c0-.43.14-.79.43-1.07.28-.28.68-.43,1.19-.43s.89.14,1.18.43c.29.28.43.64.43,1.07s-.14.77-.43,1.05c-.29.28-.68.42-1.18.42s-.9-.14-1.19-.42c-.28-.28-.43-.63-.43-1.05ZM105.53,212.09v12.65h-2.83v-12.65h2.83Z"/>
      <path d="M113.78,222.74c.46,0,.87-.09,1.25-.27.37-.18.67-.44.9-.77.23-.33.36-.71.38-1.13h2.65c-.02.82-.26,1.56-.73,2.23-.47.67-1.09,1.2-1.86,1.6-.77.39-1.63.59-2.56.59s-1.81-.17-2.53-.5c-.72-.33-1.31-.79-1.79-1.37s-.83-1.26-1.07-2.02-.36-1.58-.36-2.46v-.41c0-.87.12-1.69.36-2.46s.59-1.45,1.07-2.03c.48-.59,1.07-1.04,1.79-1.37.72-.33,1.56-.5,2.51-.5,1.01,0,1.9.2,2.67.6.76.4,1.37.96,1.81,1.67s.67,1.54.68,2.49h-2.65c-.02-.47-.14-.89-.35-1.27-.21-.38-.49-.68-.87-.91-.37-.23-.81-.34-1.33-.34-.57,0-1.04.11-1.42.34-.37.23-.67.54-.88.94-.21.39-.36.83-.45,1.32-.09.49-.13.99-.13,1.51v.41c0,.52.04,1.03.13,1.52.09.49.24.93.45,1.32.21.39.51.69.88.92.37.23.85.35,1.43.35Z"/>
      <path d="M133.98,209.99l-5.09,14.76h-3.08l6.41-17.03h1.96l-.21,2.27ZM137.99,218.43v2.33h-9.26v-2.33h9.26ZM138.24,224.75l-5.1-14.76-.22-2.27h1.98l6.43,17.03h-3.09Z"/>
      <path d="M145.56,214.67v10.08h-2.82v-12.65h2.65l.16,2.57ZM145.1,217.95h-.96c0-.88.11-1.69.33-2.43.22-.74.54-1.39.96-1.94.42-.55.95-.97,1.57-1.27.63-.3,1.35-.45,2.18-.45.58,0,1.11.08,1.58.25.48.17.9.43,1.25.79.36.36.63.82.82,1.38s.29,1.24.29,2.03v8.43h-2.82v-8.19c0-.62-.09-1.1-.27-1.45-.18-.35-.44-.6-.78-.75-.34-.15-.74-.23-1.21-.23-.53,0-.98.1-1.35.31-.37.2-.67.48-.91.83-.23.35-.41.76-.51,1.22-.11.46-.16.95-.16,1.47ZM152.95,217.2l-1.32.29c0-.76.11-1.49.32-2.17.21-.68.53-1.28.95-1.8.42-.52.93-.93,1.55-1.22.62-.3,1.32-.45,2.12-.45.65,0,1.23.09,1.74.26.51.18.94.45,1.3.82s.63.86.82,1.46c.19.6.28,1.32.28,2.16v8.19h-2.83v-8.2c0-.64-.09-1.13-.27-1.49-.18-.35-.44-.59-.78-.73-.33-.14-.74-.21-1.2-.21-.44,0-.82.08-1.15.24-.33.16-.61.38-.84.67s-.4.61-.51.98-.17.76-.17,1.19Z"/>
      <path d="M166.42,214.67v10.08h-2.82v-12.65h2.65l.16,2.57ZM165.96,217.95h-.96c0-.88.11-1.69.33-2.43s.54-1.39.96-1.94c.42-.55.95-.97,1.57-1.27.63-.3,1.35-.45,2.18-.45.58,0,1.1.08,1.58.25.48.17.9.43,1.25.79.35.36.63.82.82,1.38.19.56.29,1.24.29,2.03v8.43h-2.82v-8.19c0-.62-.09-1.1-.27-1.45s-.44-.6-.78-.75-.74-.23-1.21-.23c-.53,0-.98.1-1.35.31s-.67.48-.91.83c-.23.35-.41.76-.51,1.22-.11.46-.16.95-.16,1.47ZM173.81,217.2l-1.32.29c0-.76.11-1.49.32-2.17.21-.68.53-1.28.95-1.8.42-.52.93-.93,1.55-1.22.62-.3,1.32-.45,2.12-.45.65,0,1.23.09,1.74.26.51.18.95.45,1.3.82.36.37.63.86.82,1.46.19.6.28,1.32.28,2.16v8.19h-2.83v-8.2c0-.64-.09-1.13-.27-1.49-.18-.35-.44-.59-.78-.73-.33-.14-.74-.21-1.2-.21-.44,0-.82.08-1.15.24-.33.16-.61.38-.84.67-.23.28-.4.61-.51.98s-.17.76-.17,1.19Z"/>
      <path d="M192.47,219.13l.95-.02c0,.85-.09,1.63-.28,2.34-.19.71-.48,1.33-.87,1.86-.39.53-.89.94-1.5,1.23-.61.29-1.34.44-2.19.44-.62,0-1.18-.09-1.7-.27s-.96-.46-1.33-.83c-.37-.37-.66-.86-.86-1.46-.2-.6-.3-1.32-.3-2.15v-8.17h2.82v8.2c0,.46.05.84.16,1.15.11.31.26.55.44.74s.4.32.65.4.52.12.8.12c.8,0,1.44-.16,1.9-.47.46-.32.8-.74.99-1.28.2-.54.3-1.14.3-1.81ZM192.08,221.77v-9.67h2.83v12.65h-2.67l-.16-2.98Z"/>
      <path d="M200.58,214.8v9.95h-2.82v-12.65h2.65l.16,2.7ZM200.08,217.95h-.91c0-.91.13-1.73.38-2.48.25-.75.59-1.39,1.03-1.93s.97-.95,1.59-1.25c.62-.29,1.3-.44,2.06-.44.61,0,1.16.08,1.66.25.49.17.92.44,1.27.81.35.37.63.86.81,1.46.19.6.28,1.33.28,2.19v8.17h-2.83v-8.19c0-.61-.09-1.09-.26-1.44-.18-.36-.43-.61-.76-.76s-.74-.23-1.23-.23-.92.1-1.3.31-.7.48-.96.83c-.26.35-.46.76-.6,1.22-.14.46-.21.95-.21,1.47Z"/>
      <path d="M211.12,208.77c0-.43.14-.79.43-1.07.28-.28.68-.43,1.19-.43s.89.14,1.18.43c.29.28.43.64.43,1.07s-.14.77-.43,1.05c-.29.28-.68.42-1.18.42s-.9-.14-1.19-.42c-.28-.28-.43-.63-.43-1.05ZM214.13,212.09v12.65h-2.83v-12.65h2.83Z"/>
      <path d="M223.02,212.09v2.06h-7.13v-2.06h7.13ZM217.95,209h2.82v12.26c0,.39.06.69.17.9.11.21.27.34.47.41.2.07.44.1.71.1.19,0,.38-.01.56-.04.18-.02.32-.05.43-.07v2.15c-.22.07-.49.13-.8.19-.31.05-.66.08-1.06.08-.65,0-1.22-.11-1.72-.34s-.89-.61-1.17-1.13c-.28-.52-.42-1.22-.42-2.08v-12.43Z"/>
      <path d="M225.2,208.77c0-.43.14-.79.43-1.07.28-.28.68-.43,1.19-.43s.89.14,1.18.43c.29.28.43.64.43,1.07s-.14.77-.43,1.05c-.29.28-.68.42-1.18.42s-.9-.14-1.19-.42c-.28-.28-.43-.63-.43-1.05ZM228.21,212.09v12.65h-2.83v-12.65h2.83Z"/>
      <path d="M230.76,218.56v-.27c0-.91.13-1.76.4-2.54.26-.78.65-1.47,1.15-2.05.5-.58,1.12-1.03,1.85-1.36.73-.32,1.55-.49,2.47-.49s1.76.16,2.48.49c.73.32,1.35.78,1.85,1.36.51.58.89,1.26,1.16,2.05s.4,1.63.4,2.54v.27c0,.91-.13,1.76-.4,2.54s-.65,1.46-1.16,2.04c-.51.58-1.12,1.03-1.85,1.36-.73.32-1.55.48-2.47.48s-1.76-.16-2.49-.48c-.73-.32-1.35-.78-1.85-1.36-.51-.58-.89-1.26-1.16-2.04-.27-.78-.4-1.63-.4-2.54ZM233.58,218.29v.27c0,.57.06,1.11.18,1.61.12.51.3.95.55,1.33.25.38.57.68.96.9.39.22.85.33,1.39.33s.98-.11,1.36-.33c.39-.22.7-.52.95-.9.25-.38.43-.83.56-1.33.12-.51.18-1.04.18-1.61v-.27c0-.56-.06-1.09-.18-1.6-.12-.5-.31-.95-.56-1.34-.25-.39-.57-.7-.96-.92s-.84-.33-1.37-.33-.99.11-1.37.33-.7.53-.95.92-.43.84-.55,1.34-.18,1.04-.18,1.6Z"/>
      <path d="M247.68,214.8v9.95h-2.82v-12.65h2.65l.16,2.7ZM247.18,217.95h-.91c0-.91.13-1.73.38-2.48.25-.75.59-1.39,1.03-1.93s.97-.95,1.59-1.25c.62-.29,1.3-.44,2.06-.44.61,0,1.16.08,1.66.25.49.17.92.44,1.27.81.35.37.63.86.81,1.46.19.6.28,1.33.28,2.19v8.17h-2.83v-8.19c0-.61-.09-1.09-.26-1.44-.18-.36-.43-.61-.76-.76s-.74-.23-1.23-.23-.92.1-1.3.31-.7.48-.96.83c-.26.35-.46.76-.6,1.22-.14.46-.21.95-.21,1.47Z"/>
    </g>
  </g>
  <g>
    <path d="M13.06,12.11h7.1v2.07h-5.09l-.31,2.81c.18-.11.44-.21.77-.33s.72-.17,1.15-.17c.62,0,1.16.1,1.65.29s.89.48,1.23.85c.33.37.58.82.76,1.35s.26,1.14.26,1.81c0,.57-.08,1.12-.25,1.63s-.43.97-.78,1.36-.79.7-1.33.93-1.16.34-1.89.34c-.55,0-1.08-.08-1.6-.25s-.97-.4-1.37-.72-.72-.7-.97-1.16-.38-.99-.4-1.58h2.41c.06.56.26.99.6,1.29s.78.46,1.31.46c.33,0,.61-.06.84-.18s.42-.29.57-.51c.14-.22.24-.47.31-.77s.1-.62.1-.97-.04-.65-.13-.94-.22-.53-.39-.73-.4-.36-.66-.47-.57-.17-.93-.17c-.24,0-.45.02-.62.06s-.33.09-.47.16-.25.14-.36.22-.21.17-.3.27l-1.95-.48.73-6.5Z"/>
    <path d="M22.93,22.34c.3-.31.71-.47,1.25-.47s.94.16,1.24.47.45.69.45,1.15-.15.84-.46,1.14c-.31.3-.72.45-1.23.45s-.93-.15-1.24-.46-.46-.68-.46-1.13.15-.83.45-1.15Z"/>
    <path d="M28.67,12.11h7.1v2.07h-5.09l-.31,2.81c.18-.11.44-.21.77-.33s.72-.17,1.15-.17c.62,0,1.16.1,1.65.29s.89.48,1.23.85c.33.37.58.82.76,1.35s.26,1.14.26,1.81c0,.57-.08,1.12-.25,1.63s-.43.97-.78,1.36-.79.7-1.33.93-1.16.34-1.89.34c-.55,0-1.08-.08-1.6-.25s-.97-.4-1.37-.72-.72-.7-.97-1.16-.38-.99-.4-1.58h2.41c.06.56.26.99.6,1.29s.78.46,1.31.46c.33,0,.61-.06.84-.18s.42-.29.57-.51c.14-.22.24-.47.31-.77s.1-.62.1-.97-.04-.65-.13-.94-.22-.53-.39-.73-.4-.36-.66-.47-.57-.17-.93-.17c-.24,0-.45.02-.62.06s-.33.09-.47.16-.25.14-.36.22-.21.17-.3.27l-1.95-.48.73-6.5Z"/>
    <path d="M45.1,14.03h-.14c-.64,0-1.21.08-1.71.25s-.92.41-1.26.72c-.35.31-.63.68-.83,1.12-.2.43-.33.92-.38,1.45.13-.15.29-.29.47-.44.18-.14.38-.27.6-.39.22-.11.45-.2.71-.27s.54-.11.83-.11c.61,0,1.14.12,1.6.35.45.23.83.54,1.14.94.3.4.53.86.68,1.38.15.53.22,1.08.22,1.66,0,.62-.1,1.2-.3,1.73s-.48,1-.85,1.39-.82.7-1.34.93c-.53.22-1.12.34-1.78.34s-1.3-.13-1.85-.38c-.55-.25-1.02-.61-1.4-1.06-.39-.45-.68-.99-.89-1.6s-.31-1.29-.31-2.03v-.94c0-1.01.14-1.95.41-2.82s.69-1.61,1.23-2.25c.54-.63,1.22-1.12,2.03-1.47.81-.35,1.74-.53,2.8-.53h.33v2.03ZM42.02,18.43c-.21.07-.39.16-.56.29-.15.11-.28.24-.4.39s-.22.31-.3.48v.72c0,.47.05.88.14,1.23.1.35.23.64.41.87.18.23.38.41.62.53s.5.18.78.18.55-.06.78-.18.43-.29.6-.5.29-.46.38-.75c.09-.29.13-.61.13-.95s-.04-.67-.13-.96-.21-.55-.38-.76c-.16-.21-.37-.38-.6-.5-.24-.12-.51-.18-.81-.18-.23,0-.45.03-.66.1Z"/>
  </g>
  <g>
    <path d="M283.02,45.65l4.81,1.38v3.07h-12.8v-2.27h3.79l5.99.11-5.55-1.68v-1.22l5.32-1.5-5.75.11h-3.79v-2.27h12.8v3.07l-4.81,1.21Z"/>
    <path d="M275.03,55.81h9.82l-1.16-3.23h2.13l2.01,5.57v.13h-12.8v-2.47Z"/>
    <path d="M277.18,66.48c.14.48.35.88.62,1.21.26.32.58.56.95.74.38.18.8.3,1.27.36h.05c-.12-.12-.24-.26-.34-.41s-.2-.32-.27-.5c-.09-.19-.16-.41-.21-.65s-.07-.5-.07-.79c0-.61.11-1.15.33-1.61s.53-.85.91-1.16c.39-.32.84-.56,1.37-.72.52-.16,1.09-.24,1.69-.24s1.21.1,1.75.29c.55.2,1.03.48,1.44.85s.73.82.97,1.34c.24.52.36,1.12.36,1.77s-.13,1.27-.39,1.8-.62.99-1.08,1.36c-.46.37-1.01.65-1.65.85s-1.34.29-2.1.29h-.84c-1.02,0-1.96-.13-2.81-.38s-1.59-.64-2.21-1.17c-.63-.53-1.12-1.2-1.46-2.01-.35-.81-.52-1.79-.52-2.92v-.18h2.05v.17c0,.66.07,1.22.21,1.71ZM281.16,67.63c.06.19.16.37.27.52.11.15.24.29.4.4s.32.21.51.28h.87c.47,0,.88-.05,1.23-.15s.64-.23.88-.4.41-.37.53-.6.18-.47.18-.74c0-.29-.07-.54-.21-.77-.14-.23-.32-.41-.55-.57-.23-.15-.5-.27-.8-.35-.3-.08-.62-.12-.95-.12s-.64.04-.94.11-.56.19-.78.35c-.22.15-.4.35-.53.58-.13.23-.2.51-.2.83,0,.22.03.43.1.62Z"/>
    <path d="M282.5,77.68c0,.35.05.65.14.91.1.25.23.46.41.62.15.15.34.26.56.33.22.07.46.11.72.11s.48-.04.69-.11c.21-.07.39-.18.54-.33.15-.15.26-.33.34-.56s.12-.49.12-.79c0-.25-.04-.48-.11-.69s-.17-.4-.3-.56c-.13-.16-.3-.29-.48-.39s-.4-.14-.63-.14v-2.44c.52,0,1,.11,1.42.32.43.21.8.51,1.11.88.3.38.54.82.71,1.32s.25,1.05.25,1.64c0,.63-.08,1.21-.23,1.74-.16.53-.39.98-.69,1.35-.31.38-.69.67-1.15.87s-.98.31-1.58.31c-.28,0-.55-.04-.81-.12s-.52-.2-.76-.36-.46-.35-.66-.59c-.2-.23-.38-.5-.52-.81-.13.36-.29.67-.49.93-.2.26-.42.48-.68.65-.26.17-.54.3-.84.38s-.63.12-.97.12c-.6,0-1.13-.11-1.6-.34s-.86-.54-1.18-.94c-.32-.4-.57-.87-.73-1.42-.17-.55-.25-1.14-.25-1.77,0-.54.07-1.08.22-1.59.15-.52.38-.98.68-1.38.3-.4.68-.73,1.13-.97.46-.24,1-.37,1.62-.37v2.44c-.25,0-.47.05-.68.14s-.38.23-.53.4c-.15.17-.27.37-.36.61-.09.23-.13.49-.13.77,0,.32.04.6.13.85s.22.46.39.63c.15.16.34.29.56.37s.47.13.75.13c.35,0,.64-.05.89-.15s.45-.24.61-.43c.16-.19.28-.42.35-.69s.11-.57.11-.9v-1.33h1.9v1.33Z"/>
  </g>
  <g>
    <path d="M260.52,261.1v5.3h-2.48v-12.8h8.65v2.01h-6.17v3.48h5.48v2h-5.48Z"/>
    <path d="M272.93,258.41l1.38-4.81h3.07v12.8h-2.27v-3.79l.11-5.99-1.68,5.55h-1.22l-1.5-5.32.11,5.75v3.79h-2.27v-12.8h3.07l1.21,4.81Z"/>
    <path d="M287.99,253.6v8.87c0,.61-.11,1.17-.34,1.67-.23.5-.53.93-.93,1.3s-.85.64-1.38.84c-.53.2-1.1.3-1.71.3-.64,0-1.23-.08-1.76-.25s-.98-.41-1.35-.74c-.38-.32-.68-.73-.89-1.22s-.32-1.07-.33-1.73h2.48c0,.3.03.57.09.8s.15.42.26.58c.15.19.35.34.6.43s.54.14.9.14c.28,0,.54-.05.77-.16s.43-.26.6-.44.29-.41.38-.67c.09-.26.14-.54.14-.84v-8.87h2.47Z"/>
    <path d="M263.26,275.2h4.3c.7,0,1.33.07,1.9.21s1.06.35,1.46.64.72.65.94,1.09.33.96.33,1.56c0,.39-.07.75-.21,1.09-.13.34-.33.64-.58.9-.14.14-.3.27-.48.39s-.38.22-.59.3h0c.42.13.76.28,1.01.46s.46.39.63.63c.18.26.31.54.39.84.08.3.13.61.13.94,0,.62-.11,1.16-.32,1.63-.21.47-.51.86-.91,1.18s-.87.55-1.43.71-1.2.24-1.9.24h-4.67v-12.8ZM267.58,280.57c.38,0,.71-.05.99-.14s.52-.21.69-.38c.15-.13.26-.3.34-.49s.12-.41.12-.66-.03-.48-.1-.68-.17-.35-.3-.48c-.18-.18-.41-.31-.71-.4s-.64-.13-1.04-.13h-1.83v3.36h1.84ZM265.74,286h2.2c.32,0,.61-.04.87-.12s.47-.19.64-.33c.19-.16.33-.35.43-.57s.14-.47.14-.75-.04-.54-.11-.77-.19-.42-.35-.58c-.16-.16-.36-.29-.62-.38s-.55-.13-.9-.14h-2.3v3.65Z"/>
    <path d="M279.54,277.22v10.78h-2.48v-10.78h-3.89v-2.01h10.32v2.01h-3.95Z"/>
  </g>
  <g>
    <path d="M132.99,273.6v-9.82l-3.23,1.16v-2.13l5.57-2.01h.13v12.8h-2.47Z"/>
    <path d="M139.91,273.6v-1.67l4.14-4.45c.32-.35.59-.67.82-.96s.4-.55.54-.79c.13-.23.23-.45.29-.66s.09-.4.09-.6c0-.29-.04-.54-.12-.76s-.2-.41-.34-.57c-.15-.15-.33-.27-.54-.35s-.44-.12-.69-.12c-.33,0-.62.05-.87.14s-.46.22-.62.4c-.17.18-.3.41-.39.68s-.13.58-.13.92h-2.45c0-.57.11-1.11.33-1.61s.52-.95.92-1.33c.39-.38.87-.68,1.43-.9.56-.22,1.18-.33,1.86-.33s1.23.09,1.73.27.92.44,1.26.76c.33.33.59.72.76,1.18.18.46.26.97.26,1.53,0,.42-.07.83-.2,1.21s-.32.76-.56,1.14c-.25.38-.54.76-.88,1.15s-.72.8-1.13,1.23l-2.41,2.55h5.62v1.96h-8.73Z"/>
    <path d="M158.96,265.19c-.1.31-.25.59-.44.85-.15.19-.32.37-.51.54-.2.17-.42.31-.66.43.22.11.42.22.62.36.19.13.37.28.52.44.28.29.5.63.66,1.02s.24.81.24,1.27c0,.6-.11,1.13-.33,1.59s-.52.84-.9,1.14c-.39.31-.84.54-1.36.7s-1.08.24-1.69.24-1.18-.08-1.7-.24-.98-.39-1.37-.7c-.39-.3-.69-.69-.91-1.14s-.33-.99-.33-1.59c0-.35.05-.68.15-1,.1-.31.23-.6.41-.87.18-.26.39-.49.64-.7.25-.21.53-.38.84-.53-.26-.13-.5-.3-.72-.48s-.39-.4-.54-.62c-.16-.24-.28-.5-.36-.79s-.13-.59-.13-.91c0-.58.1-1.09.3-1.53.2-.44.48-.82.83-1.12.35-.3.77-.53,1.26-.69.49-.15,1.02-.23,1.6-.23s1.12.08,1.61.23c.49.16.92.39,1.28.69.36.3.64.68.84,1.12.2.44.3.95.3,1.53,0,.35-.05.68-.15.99ZM156.8,269.14c-.09-.23-.21-.44-.37-.61-.16-.16-.36-.29-.58-.38s-.48-.13-.76-.13-.53.04-.76.13-.42.21-.58.38c-.16.17-.28.37-.37.61s-.13.5-.13.79.05.58.14.82.23.44.4.6c.16.15.35.27.57.35.22.08.47.12.75.12s.52-.04.74-.13c.22-.08.42-.21.58-.37.16-.16.28-.36.37-.59.09-.23.14-.49.14-.79s-.04-.56-.13-.79ZM156.56,263.62c-.08-.21-.18-.39-.32-.54-.14-.15-.31-.26-.5-.34s-.42-.12-.66-.12-.47.04-.67.12c-.19.08-.35.19-.48.34-.13.15-.24.33-.3.54-.07.21-.1.45-.1.71s.04.5.11.72c.07.21.18.4.32.55.13.15.3.27.5.36s.42.13.66.13.47-.04.66-.13.36-.2.49-.36.24-.33.31-.55c.07-.21.11-.45.11-.71s-.04-.49-.11-.7Z"/>
    <path d="M161.52,273.6v-1.67l4.14-4.45c.32-.35.59-.67.82-.96s.4-.55.54-.79c.13-.23.23-.45.29-.66.06-.21.09-.4.09-.6,0-.29-.04-.54-.12-.76s-.2-.41-.34-.57c-.15-.15-.33-.27-.54-.35-.21-.08-.44-.12-.69-.12-.33,0-.62.05-.87.14s-.46.22-.62.4c-.17.18-.3.41-.39.68s-.13.58-.13.92h-2.45c0-.57.11-1.11.33-1.61s.52-.95.92-1.33c.39-.38.87-.68,1.43-.9.56-.22,1.18-.33,1.86-.33s1.23.09,1.73.27c.5.18.92.44,1.26.76.33.33.59.72.76,1.18.18.46.26.97.26,1.53,0,.42-.07.83-.2,1.21-.13.38-.32.76-.56,1.14-.25.38-.54.76-.88,1.15s-.72.8-1.13,1.23l-2.41,2.55h5.62v1.96h-8.73Z"/>
    <path d="M134.3,284.42v3.58h-1.54v-8.53h5.65v1.25h-4.12v2.45h3.63v1.25h-3.63Z"/>
    <path d="M143.38,280.72v7.28h-1.52v-7.28h-2.61v-1.25h6.77v1.25h-2.64Z"/>
    <path d="M147.81,284.85v-1.22h4.79v1.22h-4.79Z"/>
    <path d="M159.94,286.76v1.24h-5.57v-8.53h1.54v7.29h4.03Z"/>
    <path d="M161.45,279.47h2.79c.44,0,.85.05,1.22.14s.69.23.96.42c.27.19.48.43.63.72s.22.64.22,1.03c0,.25-.05.48-.13.7s-.21.41-.37.58c-.1.11-.21.2-.33.28s-.27.15-.42.22h0c.27.08.49.18.66.3s.32.26.43.42c.12.17.22.36.28.57s.09.42.09.64c0,.41-.07.77-.22,1.08s-.35.57-.61.78c-.26.21-.58.36-.94.47s-.78.16-1.22.16h-3.03v-8.53ZM164.27,283.06c.24,0,.46-.03.65-.09s.35-.14.47-.26c.11-.09.19-.21.25-.35s.09-.29.09-.47c0-.19-.03-.35-.08-.49s-.13-.25-.23-.34c-.12-.12-.29-.2-.49-.26s-.43-.08-.68-.09h-1.27v2.34h1.28ZM162.98,286.76h1.51c.22,0,.42-.03.59-.09s.33-.14.45-.24c.13-.11.23-.25.3-.4s.11-.33.11-.53c0-.2-.02-.38-.08-.54s-.14-.3-.26-.41c-.11-.11-.26-.2-.43-.26s-.38-.09-.61-.1h-1.58v2.57Z"/>
  </g>
  <g>
    <path d="M243.29,14.6h7.1v2.07h-5.09l-.31,2.81c.18-.11.44-.21.77-.33s.72-.17,1.15-.17c.62,0,1.17.1,1.65.29.48.2.89.48,1.23.85.33.37.58.82.76,1.35s.26,1.14.26,1.81c0,.57-.08,1.12-.25,1.63s-.43.97-.78,1.36-.79.7-1.33.93-1.16.34-1.89.34c-.55,0-1.08-.08-1.6-.25-.51-.16-.97-.4-1.37-.72s-.72-.7-.97-1.16c-.25-.46-.38-.99-.4-1.58h2.41c.06.56.26.99.6,1.29.34.3.78.46,1.31.46.33,0,.61-.06.84-.18.23-.12.42-.29.57-.51.14-.22.25-.47.31-.77.07-.3.1-.62.1-.97s-.04-.65-.13-.94c-.09-.28-.22-.53-.39-.73s-.4-.36-.66-.47-.57-.17-.93-.17c-.24,0-.45.02-.62.06s-.33.09-.47.16-.25.14-.36.22-.21.17-.3.27l-1.95-.48.73-6.5Z"/>
    <path d="M254.09,14.6h7.1v2.07h-5.09l-.31,2.81c.18-.11.44-.21.77-.33s.72-.17,1.15-.17c.62,0,1.16.1,1.65.29.48.2.89.48,1.23.85.33.37.58.82.76,1.35s.26,1.14.26,1.81c0,.57-.08,1.12-.25,1.63s-.43.97-.78,1.36-.79.7-1.33.93-1.16.34-1.89.34c-.55,0-1.08-.08-1.59-.25-.51-.16-.97-.4-1.37-.72s-.72-.7-.97-1.16c-.25-.46-.38-.99-.4-1.58h2.41c.06.56.26.99.6,1.29.34.3.78.46,1.31.46.33,0,.61-.06.84-.18.23-.12.42-.29.57-.51.14-.22.24-.47.31-.77.07-.3.1-.62.1-.97s-.04-.65-.13-.94c-.08-.28-.21-.53-.39-.73s-.4-.36-.66-.47-.57-.17-.93-.17c-.24,0-.45.02-.62.06s-.33.09-.47.16-.25.14-.36.22-.21.17-.3.27l-1.95-.48.73-6.5Z"/>
    <path d="M275.7,26.49c-.28.2-.6.38-.97.54-.38.16-.81.3-1.28.4s-.97.15-1.51.15c-.47,0-.91-.05-1.32-.16-.41-.11-.79-.27-1.14-.47-.34-.21-.65-.47-.93-.77s-.51-.65-.71-1.05c-.22-.43-.39-.92-.5-1.47s-.17-1.14-.17-1.78v-1.74c0-.61.05-1.18.17-1.7.11-.52.27-1,.47-1.43.19-.38.42-.72.67-1.03s.53-.57.84-.79c.36-.25.75-.44,1.17-.57s.87-.19,1.34-.19c.72,0,1.35.09,1.88.27s.99.44,1.36.78c.37.35.66.76.87,1.26.21.49.35,1.05.41,1.66h-2.41c-.04-.31-.1-.59-.19-.83s-.2-.44-.35-.61c-.16-.18-.37-.32-.62-.41-.25-.09-.55-.14-.89-.14-.19,0-.37.03-.54.09s-.34.14-.49.25c-.2.15-.38.35-.54.6s-.29.54-.4.87c-.08.26-.15.54-.19.86s-.07.66-.07,1.03v1.76c0,.46.03.88.09,1.27s.15.72.26,1.01c.07.17.15.33.24.47.09.14.19.27.3.38.19.19.41.33.66.43.25.1.53.15.85.15.19,0,.38-.01.57-.04s.36-.07.53-.12.31-.11.44-.18c.13-.07.22-.14.29-.21v-2.32s-2.11,0-2.11,0v-1.85h4.58v5.04c-.15.19-.37.39-.64.59Z"/>
    <path d="M280.82,22.62v4.78h-2.47v-12.8h4.29c.71,0,1.35.08,1.93.25.57.17,1.07.41,1.48.73.4.32.72.72.94,1.2.22.48.33,1.04.33,1.67,0,.46-.05.87-.16,1.24-.11.37-.26.69-.46.98-.21.29-.45.55-.73.76-.29.22-.6.4-.96.56l2.75,5.28v.11h-2.65l-2.41-4.78h-1.87ZM282.65,20.61c.38,0,.72-.05,1.01-.16.29-.11.53-.27.71-.47.15-.16.27-.36.35-.59.08-.23.12-.48.12-.76,0-.34-.05-.64-.15-.9-.1-.26-.26-.48-.46-.65-.18-.15-.4-.27-.67-.35s-.57-.12-.91-.12h-1.82v4.01h1.83Z"/>
  </g>
  <g>
    <path d="M16.18,266.02c.35,0,.66-.05.91-.14.25-.1.46-.23.62-.41.15-.15.26-.34.33-.56.07-.22.11-.46.11-.72s-.04-.48-.11-.69-.18-.39-.33-.54c-.15-.15-.33-.26-.56-.34s-.49-.12-.79-.12c-.25,0-.48.04-.69.11s-.4.17-.56.3c-.16.13-.29.3-.39.48s-.14.4-.14.63h-2.44c0-.52.11-1,.32-1.42s.51-.8.88-1.11c.38-.3.82-.54,1.32-.71s1.05-.25,1.64-.25c.63,0,1.21.08,1.74.23.53.16.98.39,1.35.69.38.31.67.69.88,1.15s.31.98.31,1.58c0,.28-.04.55-.12.81s-.2.52-.36.76-.35.46-.59.66c-.23.2-.5.38-.81.52.36.13.67.29.93.49s.48.42.65.68c.17.26.3.54.38.84s.12.63.12.97c0,.6-.11,1.13-.34,1.6s-.54.86-.94,1.18c-.4.32-.87.57-1.42.73-.55.17-1.14.25-1.77.25-.54,0-1.08-.07-1.59-.22-.52-.15-.98-.38-1.38-.68-.4-.3-.73-.68-.97-1.13s-.37-1-.37-1.62h2.44c0,.25.05.47.14.68s.23.38.4.53c.17.15.37.27.61.36.23.09.49.13.77.13.32,0,.6-.04.85-.13s.46-.22.63-.39c.16-.15.29-.34.37-.56s.13-.47.13-.75c0-.35-.05-.64-.15-.89s-.24-.45-.43-.61c-.19-.16-.42-.28-.69-.35s-.57-.11-.9-.11h-1.33v-1.9h1.33Z"/>
    <path d="M22.84,273.49v-1.67l4.14-4.45c.32-.35.59-.67.82-.96s.4-.55.54-.79c.13-.23.23-.45.29-.66s.09-.4.09-.6c0-.29-.04-.54-.12-.76s-.2-.41-.34-.57c-.15-.15-.33-.27-.54-.35s-.44-.12-.69-.12c-.33,0-.62.05-.87.14s-.46.22-.62.4c-.17.18-.3.41-.39.68s-.13.58-.13.92h-2.45c0-.57.11-1.11.33-1.61s.52-.95.92-1.33c.39-.38.87-.68,1.43-.9.56-.22,1.18-.33,1.86-.33s1.23.09,1.73.27.92.44,1.26.76c.33.33.59.72.76,1.18.18.46.26.97.26,1.53,0,.42-.07.83-.2,1.21s-.32.76-.56,1.14c-.25.38-.54.76-.88,1.15s-.72.8-1.13,1.23l-2.41,2.55h5.62v1.96h-8.73Z"/>
    <path d="M34.85,260.69h7.1v2.07h-5.09l-.31,2.81c.18-.11.44-.21.77-.33s.72-.17,1.15-.17c.62,0,1.17.1,1.65.29s.89.48,1.23.85c.33.37.58.82.76,1.35s.26,1.14.26,1.81c0,.57-.08,1.12-.25,1.63s-.43.97-.78,1.36-.79.7-1.33.93-1.16.34-1.89.34c-.55,0-1.08-.08-1.59-.25s-.97-.4-1.37-.72-.72-.7-.97-1.16-.38-.99-.4-1.58h2.41c.06.56.26.99.6,1.29s.78.46,1.31.46c.33,0,.61-.06.84-.18s.42-.29.57-.51c.14-.22.25-.47.31-.77s.1-.62.1-.97-.04-.65-.13-.94-.22-.53-.39-.73-.4-.36-.66-.47-.57-.17-.93-.17c-.24,0-.45.02-.62.06s-.33.09-.47.16-.25.14-.36.22-.21.17-.3.27l-1.95-.48.73-6.5Z"/>
    <path d="M52.85,270.8c-.19.63-.46,1.16-.82,1.58-.36.43-.79.75-1.31.97s-1.1.33-1.74.33-1.22-.11-1.73-.33-.95-.54-1.31-.97c-.36-.42-.64-.95-.84-1.58-.2-.63-.29-1.36-.29-2.18v-3.06c0-.83.1-1.55.29-2.18s.47-1.16.83-1.59c.36-.42.79-.74,1.31-.96.51-.22,1.09-.33,1.73-.33s1.22.11,1.74.33.96.54,1.32.96c.36.43.63.96.83,1.59s.29,1.36.29,2.18v3.06c0,.83-.1,1.55-.29,2.18ZM50.67,265.02c-.01-.48-.06-.89-.15-1.24-.09-.34-.22-.62-.4-.82-.13-.16-.3-.29-.5-.36-.2-.08-.42-.12-.66-.12-.28,0-.52.05-.72.15-.21.1-.38.26-.52.46-.15.22-.27.5-.34.84-.07.35-.11.76-.11,1.23v2.39l3.41-2.54ZM50.67,267.5v-.82l-3.41,2.53c.01.39.05.73.12,1.03s.16.55.29.75c.14.24.32.42.54.54s.47.18.77.18c.28,0,.52-.05.73-.15s.39-.26.53-.47c.15-.22.26-.51.33-.86.07-.35.11-.76.11-1.23v-1.49Z"/>
    <path d="M24.42,284.31v3.58h-1.54v-8.53h5.65v1.25h-4.12v2.45h3.63v1.25h-3.63Z"/>
    <path d="M31.61,287.89h-1.53v-8.53h2.88c.45,0,.86.07,1.22.2s.68.31.95.55c.26.23.46.52.61.85s.22.7.22,1.11-.07.75-.22,1.07-.35.6-.61.83c-.27.23-.58.41-.95.54s-.78.2-1.22.2h-1.35v3.19ZM32.97,283.45c.24,0,.45-.04.63-.11s.33-.17.46-.29.22-.27.28-.44.09-.35.09-.54c0-.21-.03-.41-.09-.59s-.15-.33-.28-.46c-.12-.13-.28-.24-.46-.31s-.39-.11-.63-.11h-1.35v2.85h1.35Z"/>
    <path d="M41.52,285.2c-.07-.14-.17-.27-.3-.4-.14-.11-.32-.22-.52-.31s-.46-.18-.74-.26c-.44-.12-.83-.27-1.18-.44s-.64-.37-.87-.58c-.23-.21-.41-.46-.54-.72s-.19-.56-.19-.89c0-.36.08-.69.23-.98s.37-.54.64-.74c.27-.21.58-.37.94-.47s.74-.16,1.15-.16.83.06,1.19.19.68.31.95.54.47.51.62.83.23.67.23,1.05h-1.5c-.01-.2-.05-.39-.12-.56s-.16-.31-.28-.43c-.13-.12-.29-.22-.47-.28s-.4-.1-.64-.1c-.21,0-.41.03-.59.08s-.33.13-.45.23c-.12.1-.22.22-.29.36s-.1.29-.1.46c0,.18.04.34.13.48s.21.26.37.36c.16.11.35.21.57.29s.45.16.71.23c.3.09.59.19.86.31s.53.27.76.43c.32.24.58.52.77.84s.29.7.29,1.12c0,.38-.08.71-.23,1s-.37.53-.64.73c-.27.2-.58.35-.94.45s-.75.15-1.16.15-.84-.06-1.25-.19-.77-.32-1.07-.56c-.29-.24-.51-.52-.68-.84s-.25-.7-.25-1.12h1.51c.01.26.06.48.15.67s.21.34.36.47c.15.12.33.21.54.27s.44.09.69.09c.22,0,.42-.03.59-.08s.33-.12.46-.22c.12-.09.22-.21.29-.35s.11-.29.11-.46-.03-.33-.1-.48Z"/>
  </g>
</svg>