<?xml version="1.0" encoding="UTF-8"?>
<svg id="Layer_1" xmlns="http://www.w3.org/2000/svg" version="1.1" viewBox="0 0 300 300">
  <!-- Generator: Adobe Illustrator 30.1.0, SVG Export Plug-In . SVG Version: 2.1.1 Build 136)  -->
  <defs>
    <style>
      .st0 {
        fill: #fff;
      }
    </style>
  </defs>
  <path class="st0" d="M296,4v292H4V4h292M300,0H0v300h300V0h0Z"/>
  <g>
    <g>
      <path class="st0" d="M106.4,85.3l-39.4,114.3h-23.8l49.6-131.9h15.2s-1.6,17.6-1.6,17.6ZM137.5,150.7v18h-71.7v-18h71.7ZM139.4,199.6l-39.5-114.3-1.7-17.6h15.3l49.8,131.9h-23.9Z"/>
      <path class="st0" d="M234.3,140l.2,13.5h-15.7c-4.1,0-7.6.4-10.7,1.1-3.1.8-5.6,1.9-7.7,3.3s-3.6,3.2-4.6,5.2-1.5,4.4-1.5,7,.6,5,1.8,7.1c1.2,2.1,3,3.8,5.3,5,2.3,1.2,5.1,1.8,8.5,1.8s8.4-.9,11.7-2.8c3.4-1.8,6-4.1,7.9-6.8,1.9-2.7,3-5.2,3.1-7.6l7.1,9.7c-.7,2.5-2,5.1-3.7,8s-4,5.5-6.8,8.1c-2.8,2.6-6.2,4.7-10.1,6.3-3.9,1.6-8.4,2.4-13.4,2.4s-12.1-1.3-17.1-3.9-8.9-6-11.8-10.4c-2.8-4.4-4.3-9.3-4.3-14.9s1-9.8,2.9-13.8,4.9-7.4,8.7-10.1,8.5-4.8,14.1-6.2,11.9-2.1,19-2.1h17.1ZM231.1,180v-46.7c0-3.5-.6-6.5-1.9-9.1-1.3-2.5-3.2-4.5-5.8-5.9-2.6-1.4-5.8-2.1-9.6-2.1s-6.6.6-9.2,1.8-4.6,2.8-6.1,4.9c-1.4,2.1-2.2,4.4-2.2,7h-21.7c0-3.9.9-7.6,2.8-11.2,1.9-3.6,4.6-6.8,8.1-9.7,3.6-2.8,7.8-5.1,12.8-6.7s10.5-2.4,16.7-2.4,13.9,1.2,19.6,3.7c5.7,2.5,10.2,6.2,13.5,11.2,3.3,5,4.9,11.2,4.9,18.7v43.6c0,4.5.3,8.5.9,12s1.6,6.6,2.8,9.2v1.4h-22.4c-1-2.4-1.8-5.4-2.4-9-.6-3.6-.9-7.2-.9-10.6h0Z"/>
    </g>
    <g>
      <path class="st0" d="M51.6,210l-5.1,14.8h-3.1l6.4-17h2l-.2,2.3h0ZM55.6,218.4v2.3h-9.3v-2.3h9.3ZM55.8,224.8l-5.1-14.8-.2-2.3h2l6.4,17h-3.1Z"/>
      <path class="st0" d="M66.2,212.1v2.1h-7.1v-2.1h7.1ZM61.1,209h2.8v12.3c0,.4,0,.7.2.9.1.2.3.3.5.4.2,0,.4.1.7.1s.4,0,.6,0c.2,0,.3,0,.4,0v2.1c-.2,0-.5.1-.8.2s-.7,0-1.1,0c-.7,0-1.2-.1-1.7-.3s-.9-.6-1.2-1.1-.4-1.2-.4-2.1v-12.4h0Z"/>
      <path class="st0" d="M67.5,218.6v-.3c0-.9.1-1.8.4-2.5s.7-1.5,1.2-2.1,1.1-1,1.8-1.4c.7-.3,1.6-.5,2.5-.5s1.8.2,2.5.5c.7.3,1.3.8,1.8,1.4.5.6.9,1.3,1.2,2.1s.4,1.6.4,2.5v.3c0,.9-.1,1.8-.4,2.5s-.7,1.5-1.2,2c-.5.6-1.1,1-1.8,1.4-.7.3-1.6.5-2.5.5s-1.8-.2-2.5-.5c-.7-.3-1.3-.8-1.8-1.4-.5-.6-.9-1.3-1.2-2s-.4-1.6-.4-2.5h0ZM70.3,218.3v.3c0,.6,0,1.1.2,1.6.1.5.3.9.6,1.3s.6.7,1,.9.8.3,1.4.3,1-.1,1.4-.3c.4-.2.7-.5.9-.9.2-.4.4-.8.6-1.3.1-.5.2-1,.2-1.6v-.3c0-.6,0-1.1-.2-1.6-.1-.5-.3-.9-.6-1.3s-.6-.7-1-.9-.8-.3-1.4-.3-1,.1-1.4.3c-.4.2-.7.5-.9.9s-.4.8-.6,1.3-.2,1-.2,1.6h0Z"/>
      <path class="st0" d="M84.5,214.7v10.1h-2.8v-12.6h2.7l.2,2.6h0ZM84,217.9h-1c0-.9.1-1.7.3-2.4.2-.7.5-1.4,1-1.9s.9-1,1.6-1.3c.6-.3,1.3-.4,2.2-.4s1.1,0,1.6.2c.5.2.9.4,1.2.8s.6.8.8,1.4.3,1.2.3,2v8.4h-2.8v-8.2c0-.6,0-1.1-.3-1.4-.2-.4-.4-.6-.8-.8s-.7-.2-1.2-.2-1,.1-1.3.3c-.4.2-.7.5-.9.8-.2.4-.4.8-.5,1.2-.1.5-.2.9-.2,1.5h0ZM91.8,217.2l-1.3.3c0-.8.1-1.5.3-2.2s.5-1.3.9-1.8.9-.9,1.6-1.2c.6-.3,1.3-.4,2.1-.4s1.2,0,1.7.3c.5.2.9.4,1.3.8.4.4.6.9.8,1.5s.3,1.3.3,2.2v8.2h-2.8v-8.2c0-.6,0-1.1-.3-1.5s-.4-.6-.8-.7-.7-.2-1.2-.2-.8,0-1.2.2-.6.4-.8.7c-.2.3-.4.6-.5,1s-.2.8-.2,1.2h0Z"/>
      <path class="st0" d="M102.5,208.8c0-.4.1-.8.4-1.1.3-.3.7-.4,1.2-.4s.9.1,1.2.4c.3.3.4.6.4,1.1s-.1.8-.4,1.1-.7.4-1.2.4-.9-.1-1.2-.4c-.3-.3-.4-.6-.4-1.1ZM105.5,212.1v12.6h-2.8v-12.6h2.8Z"/>
      <path class="st0" d="M113.8,222.7c.5,0,.9,0,1.2-.3.4-.2.7-.4.9-.8s.4-.7.4-1.1h2.7c0,.8-.3,1.6-.7,2.2s-1.1,1.2-1.9,1.6c-.8.4-1.6.6-2.6.6s-1.8-.2-2.5-.5-1.3-.8-1.8-1.4-.8-1.3-1.1-2-.4-1.6-.4-2.5v-.4c0-.9.1-1.7.4-2.5s.6-1.4,1.1-2c.5-.6,1.1-1,1.8-1.4s1.6-.5,2.5-.5,1.9.2,2.7.6c.8.4,1.4,1,1.8,1.7s.7,1.5.7,2.5h-2.7c0-.5-.1-.9-.3-1.3s-.5-.7-.9-.9c-.4-.2-.8-.3-1.3-.3s-1,.1-1.4.3c-.4.2-.7.5-.9.9-.2.4-.4.8-.4,1.3s-.1,1-.1,1.5v.4c0,.5,0,1,.1,1.5s.2.9.4,1.3c.2.4.5.7.9.9.4.2.8.4,1.4.4h0Z"/>
      <path class="st0" d="M134,210l-5.1,14.8h-3.1l6.4-17h2l-.2,2.3h0ZM138,218.4v2.3h-9.3v-2.3h9.3ZM138.2,224.8l-5.1-14.8-.2-2.3h2l6.4,17h-3.1,0Z"/>
      <path class="st0" d="M145.6,214.7v10.1h-2.8v-12.6h2.6l.2,2.6h0ZM145.1,217.9h-1c0-.9.1-1.7.3-2.4.2-.7.5-1.4,1-1.9.4-.6.9-1,1.6-1.3.6-.3,1.4-.4,2.2-.4s1.1,0,1.6.2c.5.2.9.4,1.2.8.4.4.6.8.8,1.4s.3,1.2.3,2v8.4h-2.8v-8.2c0-.6,0-1.1-.3-1.4-.2-.4-.4-.6-.8-.8s-.7-.2-1.2-.2-1,.1-1.4.3c-.4.2-.7.5-.9.8-.2.4-.4.8-.5,1.2-.1.5-.2.9-.2,1.5h0ZM152.9,217.2l-1.3.3c0-.8.1-1.5.3-2.2s.5-1.3.9-1.8.9-.9,1.6-1.2c.6-.3,1.3-.4,2.1-.4s1.2,0,1.7.3c.5.2.9.4,1.3.8s.6.9.8,1.5.3,1.3.3,2.2v8.2h-2.8v-8.2c0-.6,0-1.1-.3-1.5-.2-.4-.4-.6-.8-.7-.3-.1-.7-.2-1.2-.2s-.8,0-1.1.2c-.3.2-.6.4-.8.7s-.4.6-.5,1-.2.8-.2,1.2h0Z"/>
      <path class="st0" d="M166.4,214.7v10.1h-2.8v-12.6h2.6l.2,2.6h0ZM166,217.9h-1c0-.9.1-1.7.3-2.4s.5-1.4,1-1.9c.4-.6.9-1,1.6-1.3.6-.3,1.4-.4,2.2-.4s1.1,0,1.6.2.9.4,1.2.8.6.8.8,1.4.3,1.2.3,2v8.4h-2.8v-8.2c0-.6,0-1.1-.3-1.4s-.4-.6-.8-.8-.7-.2-1.2-.2-1,.1-1.4.3-.7.5-.9.8c-.2.4-.4.8-.5,1.2-.1.5-.2.9-.2,1.5h0ZM173.8,217.2l-1.3.3c0-.8.1-1.5.3-2.2s.5-1.3.9-1.8.9-.9,1.6-1.2c.6-.3,1.3-.4,2.1-.4s1.2,0,1.7.3c.5.2.9.4,1.3.8.4.4.6.9.8,1.5s.3,1.3.3,2.2v8.2h-2.8v-8.2c0-.6,0-1.1-.3-1.5-.2-.4-.4-.6-.8-.7-.3-.1-.7-.2-1.2-.2s-.8,0-1.1.2c-.3.2-.6.4-.8.7-.2.3-.4.6-.5,1s-.2.8-.2,1.2h0Z"/>
      <path class="st0" d="M192.5,219.1h.9c0,.8,0,1.6-.3,2.3-.2.7-.5,1.3-.9,1.9s-.9.9-1.5,1.2-1.3.4-2.2.4-1.2,0-1.7-.3-1-.5-1.3-.8-.7-.9-.9-1.5-.3-1.3-.3-2.1v-8.2h2.8v8.2c0,.5,0,.8.2,1.1s.3.6.4.7.4.3.6.4.5.1.8.1c.8,0,1.4-.2,1.9-.5.5-.3.8-.7,1-1.3.2-.5.3-1.1.3-1.8h0ZM192.1,221.8v-9.7h2.8v12.6h-2.7l-.2-3Z"/>
      <path class="st0" d="M200.6,214.8v9.9h-2.8v-12.6h2.6l.2,2.7h0ZM200.1,217.9h-.9c0-.9.1-1.7.4-2.5s.6-1.4,1-1.9,1-.9,1.6-1.2c.6-.3,1.3-.4,2.1-.4s1.2,0,1.7.2c.5.2.9.4,1.3.8s.6.9.8,1.5c.2.6.3,1.3.3,2.2v8.2h-2.8v-8.2c0-.6,0-1.1-.3-1.4-.2-.4-.4-.6-.8-.8s-.7-.2-1.2-.2-.9.1-1.3.3-.7.5-1,.8c-.3.4-.5.8-.6,1.2s-.2.9-.2,1.5h0Z"/>
      <path class="st0" d="M211.1,208.8c0-.4.1-.8.4-1.1.3-.3.7-.4,1.2-.4s.9.1,1.2.4c.3.3.4.6.4,1.1s-.1.8-.4,1.1-.7.4-1.2.4-.9-.1-1.2-.4c-.3-.3-.4-.6-.4-1.1ZM214.1,212.1v12.6h-2.8v-12.6h2.8Z"/>
      <path class="st0" d="M223,212.1v2.1h-7.1v-2.1h7.1ZM217.9,209h2.8v12.3c0,.4,0,.7.2.9.1.2.3.3.5.4s.4.1.7.1.4,0,.6,0c.2,0,.3,0,.4,0v2.1c-.2,0-.5.1-.8.2-.3,0-.7,0-1.1,0-.6,0-1.2-.1-1.7-.3s-.9-.6-1.2-1.1-.4-1.2-.4-2.1v-12.4h0Z"/>
      <path class="st0" d="M225.2,208.8c0-.4.1-.8.4-1.1.3-.3.7-.4,1.2-.4s.9.1,1.2.4c.3.3.4.6.4,1.1s-.1.8-.4,1.1-.7.4-1.2.4-.9-.1-1.2-.4c-.3-.3-.4-.6-.4-1.1ZM228.2,212.1v12.6h-2.8v-12.6h2.8Z"/>
      <path class="st0" d="M230.8,218.6v-.3c0-.9.1-1.8.4-2.5.3-.8.6-1.5,1.1-2.1s1.1-1,1.9-1.4c.7-.3,1.6-.5,2.5-.5s1.8.2,2.5.5c.7.3,1.4.8,1.9,1.4.5.6.9,1.3,1.2,2.1s.4,1.6.4,2.5v.3c0,.9-.1,1.8-.4,2.5s-.6,1.5-1.2,2c-.5.6-1.1,1-1.9,1.4-.7.3-1.6.5-2.5.5s-1.8-.2-2.5-.5c-.7-.3-1.4-.8-1.9-1.4-.5-.6-.9-1.3-1.2-2s-.4-1.6-.4-2.5h0ZM233.6,218.3v.3c0,.6,0,1.1.2,1.6.1.5.3.9.6,1.3s.6.7,1,.9.9.3,1.4.3,1-.1,1.4-.3c.4-.2.7-.5.9-.9.2-.4.4-.8.6-1.3.1-.5.2-1,.2-1.6v-.3c0-.6,0-1.1-.2-1.6-.1-.5-.3-.9-.6-1.3s-.6-.7-1-.9-.8-.3-1.4-.3-1,.1-1.4.3-.7.5-.9.9-.4.8-.6,1.3-.2,1-.2,1.6h0Z"/>
      <path class="st0" d="M247.7,214.8v9.9h-2.8v-12.6h2.6l.2,2.7h0ZM247.2,217.9h-.9c0-.9.1-1.7.4-2.5s.6-1.4,1-1.9,1-.9,1.6-1.2c.6-.3,1.3-.4,2.1-.4s1.2,0,1.7.2c.5.2.9.4,1.3.8s.6.9.8,1.5c.2.6.3,1.3.3,2.2v8.2h-2.8v-8.2c0-.6,0-1.1-.3-1.4-.2-.4-.4-.6-.8-.8s-.7-.2-1.2-.2-.9.1-1.3.3-.7.5-1,.8c-.3.4-.5.8-.6,1.2s-.2.9-.2,1.5h0Z"/>
    </g>
  </g>
  <g>
    <path class="st0" d="M13.1,12.1h7.1v2.1h-5.1l-.3,2.8c.2-.1.4-.2.8-.3s.7-.2,1.1-.2c.6,0,1.2.1,1.6.3s.9.5,1.2.9c.3.4.6.8.8,1.4s.3,1.1.3,1.8,0,1.1-.2,1.6-.4,1-.8,1.4-.8.7-1.3.9-1.2.3-1.9.3-1.1,0-1.6-.2-1-.4-1.4-.7-.7-.7-1-1.2-.4-1-.4-1.6h2.4c0,.6.3,1,.6,1.3s.8.5,1.3.5.6,0,.8-.2.4-.3.6-.5c.1-.2.2-.5.3-.8s.1-.6.1-1,0-.6-.1-.9-.2-.5-.4-.7-.4-.4-.7-.5-.6-.2-.9-.2-.4,0-.6,0-.3,0-.5.2-.2.1-.4.2-.2.2-.3.3l-1.9-.5.7-6.5h0Z"/>
    <path class="st0" d="M22.9,22.3c.3-.3.7-.5,1.2-.5s.9.2,1.2.5.5.7.5,1.1-.1.8-.5,1.1-.7.5-1.2.5-.9-.1-1.2-.5-.5-.7-.5-1.1.1-.8.4-1.2Z"/>
    <path class="st0" d="M28.7,12.1h7.1v2.1h-5.1l-.3,2.8c.2-.1.4-.2.8-.3s.7-.2,1.1-.2c.6,0,1.2.1,1.7.3s.9.5,1.2.9c.3.4.6.8.8,1.4s.3,1.1.3,1.8,0,1.1-.2,1.6-.4,1-.8,1.4-.8.7-1.3.9-1.2.3-1.9.3-1.1,0-1.6-.2-1-.4-1.4-.7-.7-.7-1-1.2-.4-1-.4-1.6h2.4c0,.6.3,1,.6,1.3s.8.5,1.3.5.6,0,.8-.2.4-.3.6-.5c.1-.2.2-.5.3-.8s0-.6,0-1,0-.6-.1-.9-.2-.5-.4-.7-.4-.4-.7-.5-.6-.2-.9-.2-.5,0-.6,0-.3,0-.5.2-.2.1-.4.2-.2.2-.3.3l-2-.5.7-6.5h0Z"/>
    <path class="st0" d="M45.1,14h-.1c-.6,0-1.2,0-1.7.2s-.9.4-1.3.7c-.3.3-.6.7-.8,1.1-.2.4-.3.9-.4,1.5.1-.1.3-.3.5-.4.2-.1.4-.3.6-.4.2-.1.5-.2.7-.3s.5-.1.8-.1c.6,0,1.1.1,1.6.4.5.2.8.5,1.1.9.3.4.5.9.7,1.4.2.5.2,1.1.2,1.7s0,1.2-.3,1.7-.5,1-.8,1.4-.8.7-1.3.9c-.5.2-1.1.3-1.8.3s-1.3-.1-1.8-.4-1-.6-1.4-1.1c-.4-.5-.7-1-.9-1.6s-.3-1.3-.3-2v-.9c0-1,.1-2,.4-2.8s.7-1.6,1.2-2.2c.5-.6,1.2-1.1,2-1.5.8-.4,1.7-.5,2.8-.5h.3v2h0ZM42,18.4c-.2,0-.4.2-.6.3-.2.1-.3.2-.4.4s-.2.3-.3.5v.7c0,.5,0,.9.1,1.2,0,.4.2.6.4.9.2.2.4.4.6.5s.5.2.8.2.5,0,.8-.2.4-.3.6-.5.3-.5.4-.8.1-.6.1-1,0-.7-.1-1-.2-.5-.4-.8c-.2-.2-.4-.4-.6-.5-.2-.1-.5-.2-.8-.2s-.5,0-.7.1h0Z"/>
  </g>
  <g>
    <path class="st0" d="M283,45.7l4.8,1.4v3.1h-12.8v-2.3h9.8c0,.1-5.5-1.6-5.5-1.6v-1.2l5.3-1.5h-5.8c0,.1-3.8.1-3.8.1v-2.3h12.8v3.1l-4.8,1.2h0Z"/>
    <path class="st0" d="M275,55.8h9.8l-1.2-3.2h2.1l2,5.6h0c0,.1-12.8.1-12.8.1v-2.5h0Z"/>
    <path class="st0" d="M277.2,66.5c.1.5.4.9.6,1.2.3.3.6.6,1,.7.4.2.8.3,1.3.4h0c-.1-.1-.2-.3-.3-.4s-.2-.3-.3-.5c0-.2-.2-.4-.2-.7s0-.5,0-.8c0-.6.1-1.2.3-1.6s.5-.8.9-1.2c.4-.3.8-.6,1.4-.7.5-.2,1.1-.2,1.7-.2s1.2,0,1.8.3c.5.2,1,.5,1.4.8.4.4.7.8,1,1.3s.4,1.1.4,1.8-.1,1.3-.4,1.8-.6,1-1.1,1.4-1,.7-1.6.8-1.3.3-2.1.3h-.8c-1,0-2-.1-2.8-.4s-1.6-.6-2.2-1.2c-.6-.5-1.1-1.2-1.5-2-.4-.8-.5-1.8-.5-2.9v-.2h2v.2c0,.7,0,1.2.2,1.7h0ZM281.2,67.6c0,.2.2.4.3.5.1.2.2.3.4.4s.3.2.5.3h.9c.5,0,.9,0,1.2-.2s.6-.2.9-.4.4-.4.5-.6.2-.5.2-.7,0-.5-.2-.8c-.1-.2-.3-.4-.5-.6-.2-.2-.5-.3-.8-.3s-.6-.1-1-.1-.6,0-.9.1-.6.2-.8.3c-.2.2-.4.3-.5.6s-.2.5-.2.8,0,.4.1.6h0Z"/>
    <path class="st0" d="M282.5,77.7c0,.3,0,.7.1.9.1.2.2.5.4.6.1.2.3.3.6.3s.5.1.7.1.5,0,.7-.1.4-.2.5-.3.3-.3.3-.6.1-.5.1-.8,0-.5-.1-.7-.2-.4-.3-.6c-.1-.2-.3-.3-.5-.4s-.4-.1-.6-.1v-2.4c.5,0,1,.1,1.4.3.4.2.8.5,1.1.9.3.4.5.8.7,1.3s.2,1.1.2,1.6,0,1.2-.2,1.7c-.2.5-.4,1-.7,1.3-.3.4-.7.7-1.1.9s-1,.3-1.6.3-.5,0-.8-.1-.5-.2-.8-.4-.5-.3-.7-.6c-.2-.2-.4-.5-.5-.8-.1.4-.3.7-.5.9-.2.3-.4.5-.7.7-.3.2-.5.3-.8.4s-.6.1-1,.1c-.6,0-1.1-.1-1.6-.3s-.9-.5-1.2-.9-.6-.9-.7-1.4c-.2-.6-.2-1.1-.2-1.8s0-1.1.2-1.6c.1-.5.4-1,.7-1.4.3-.4.7-.7,1.1-1,.5-.2,1-.4,1.6-.4v2.4c-.2,0-.5,0-.7.1s-.4.2-.5.4-.3.4-.4.6c0,.2-.1.5-.1.8s0,.6.1.8.2.5.4.6c.1.2.3.3.6.4s.5.1.8.1.6,0,.9-.2.5-.2.6-.4c.2-.2.3-.4.4-.7s.1-.6.1-.9v-1.3h1.9v1.3h0Z"/>
  </g>
  <g>
    <path class="st0" d="M260.5,261.1v5.3h-2.5v-12.8h8.6v2h-6.2v3.5h5.5v2h-5.5,0Z"/>
    <path class="st0" d="M272.9,258.4l1.4-4.8h3.1v12.8h-2.3v-9.8c.1,0-1.6,5.5-1.6,5.5h-1.2l-1.5-5.3v5.8c.1,0,.1,3.8.1,3.8h-2.3v-12.8h3.1l1.2,4.8h0Z"/>
    <path class="st0" d="M288,253.6v8.9c0,.6-.1,1.2-.3,1.7s-.5.9-.9,1.3-.9.6-1.4.8c-.5.2-1.1.3-1.7.3s-1.2,0-1.8-.2-1-.4-1.4-.7c-.4-.3-.7-.7-.9-1.2s-.3-1.1-.3-1.7h2.5c0,.3,0,.6,0,.8s.1.4.3.6c.1.2.4.3.6.4s.5.1.9.1.5,0,.8-.2.4-.3.6-.4.3-.4.4-.7.1-.5.1-.8v-8.9h2.5,0Z"/>
    <path class="st0" d="M263.3,275.2h4.3c.7,0,1.3,0,1.9.2s1.1.4,1.5.6.7.6.9,1.1.3,1,.3,1.6,0,.8-.2,1.1c-.1.3-.3.6-.6.9-.1.1-.3.3-.5.4s-.4.2-.6.3h0c.4.1.8.3,1,.5s.5.4.6.6c.2.3.3.5.4.8,0,.3.1.6.1.9,0,.6-.1,1.2-.3,1.6-.2.5-.5.9-.9,1.2s-.9.5-1.4.7-1.2.2-1.9.2h-4.7v-12.8h0ZM267.6,280.6c.4,0,.7,0,1-.1s.5-.2.7-.4c.1-.1.3-.3.3-.5s.1-.4.1-.7,0-.5-.1-.7-.2-.4-.3-.5c-.2-.2-.4-.3-.7-.4s-.6-.1-1-.1h-1.8v3.4h1.8ZM265.7,286h2.2c.3,0,.6,0,.9-.1s.5-.2.6-.3c.2-.2.3-.4.4-.6s.1-.5.1-.8,0-.5-.1-.8-.2-.4-.4-.6c-.2-.2-.4-.3-.6-.4s-.5-.1-.9-.1h-2.3v3.6h0Z"/>
    <path class="st0" d="M279.5,277.2v10.8h-2.5v-10.8h-3.9v-2h10.3v2h-4,0Z"/>
  </g>
  <g>
    <path class="st0" d="M133,273.6v-9.8l-3.2,1.2v-2.1l5.6-2h.1v12.8h-2.5Z"/>
    <path class="st0" d="M139.9,273.6v-1.7l4.1-4.5c.3-.4.6-.7.8-1s.4-.5.5-.8c.1-.2.2-.5.3-.7s0-.4,0-.6c0-.3,0-.5-.1-.8s-.2-.4-.3-.6c-.1-.1-.3-.3-.5-.4s-.4-.1-.7-.1-.6,0-.9.1-.5.2-.6.4c-.2.2-.3.4-.4.7s-.1.6-.1.9h-2.4c0-.6.1-1.1.3-1.6s.5-1,.9-1.3c.4-.4.9-.7,1.4-.9s1.2-.3,1.9-.3,1.2,0,1.7.3.9.4,1.3.8c.3.3.6.7.8,1.2.2.5.3,1,.3,1.5s0,.8-.2,1.2-.3.8-.6,1.1c-.2.4-.5.8-.9,1.1s-.7.8-1.1,1.2l-2.4,2.5h5.6v2h-8.7,0Z"/>
    <path class="st0" d="M159,265.2c-.1.3-.2.6-.4.9-.1.2-.3.4-.5.5-.2.2-.4.3-.7.4.2.1.4.2.6.4.2.1.4.3.5.4.3.3.5.6.7,1s.2.8.2,1.3-.1,1.1-.3,1.6-.5.8-.9,1.1c-.4.3-.8.5-1.4.7s-1.1.2-1.7.2-1.2,0-1.7-.2-1-.4-1.4-.7c-.4-.3-.7-.7-.9-1.1s-.3-1-.3-1.6,0-.7.1-1c.1-.3.2-.6.4-.9.2-.3.4-.5.6-.7.2-.2.5-.4.8-.5-.3-.1-.5-.3-.7-.5s-.4-.4-.5-.6c-.2-.2-.3-.5-.4-.8s-.1-.6-.1-.9c0-.6.1-1.1.3-1.5s.5-.8.8-1.1.8-.5,1.3-.7c.5-.1,1-.2,1.6-.2s1.1,0,1.6.2c.5.2.9.4,1.3.7s.6.7.8,1.1.3,1,.3,1.5,0,.7-.1,1h0ZM156.8,269.1c0-.2-.2-.4-.4-.6-.2-.2-.4-.3-.6-.4s-.5-.1-.8-.1-.5,0-.8.1-.4.2-.6.4-.3.4-.4.6-.1.5-.1.8,0,.6.1.8.2.4.4.6c.2.1.4.3.6.4.2,0,.5.1.8.1s.5,0,.7-.1c.2,0,.4-.2.6-.4s.3-.4.4-.6.1-.5.1-.8,0-.6-.1-.8h0ZM156.6,263.6c0-.2-.2-.4-.3-.5-.1-.1-.3-.3-.5-.3s-.4-.1-.7-.1-.5,0-.7.1c-.2,0-.4.2-.5.3-.1.1-.2.3-.3.5,0,.2-.1.5-.1.7s0,.5.1.7c0,.2.2.4.3.5.1.1.3.3.5.4s.4.1.7.1.5,0,.7-.1.4-.2.5-.4.2-.3.3-.5c0-.2.1-.5.1-.7s0-.5-.1-.7h0Z"/>
    <path class="st0" d="M161.5,273.6v-1.7l4.1-4.5c.3-.4.6-.7.8-1s.4-.5.5-.8c.1-.2.2-.5.3-.7s0-.4,0-.6c0-.3,0-.5-.1-.8s-.2-.4-.3-.6c-.1-.1-.3-.3-.5-.4-.2,0-.4-.1-.7-.1s-.6,0-.9.1-.5.2-.6.4c-.2.2-.3.4-.4.7s-.1.6-.1.9h-2.4c0-.6.1-1.1.3-1.6s.5-1,.9-1.3c.4-.4.9-.7,1.4-.9s1.2-.3,1.9-.3,1.2,0,1.7.3.9.4,1.3.8c.3.3.6.7.8,1.2.2.5.3,1,.3,1.5s0,.8-.2,1.2c-.1.4-.3.8-.6,1.1-.2.4-.5.8-.9,1.1s-.7.8-1.1,1.2l-2.4,2.5h5.6v2h-8.7,0Z"/>
    <path class="st0" d="M134.3,284.4v3.6h-1.5v-8.5h5.6v1.2h-4.1v2.5h3.6v1.2h-3.6,0Z"/>
    <path class="st0" d="M143.4,280.7v7.3h-1.5v-7.3h-2.6v-1.2h6.8v1.2h-2.6Z"/>
    <path class="st0" d="M147.8,284.9v-1.2h4.8v1.2h-4.8Z"/>
    <path class="st0" d="M159.9,286.8v1.2h-5.6v-8.5h1.5v7.3h4Z"/>
    <path class="st0" d="M161.4,279.5h2.8c.4,0,.9,0,1.2.1s.7.2,1,.4.5.4.6.7.2.6.2,1,0,.5-.1.7-.2.4-.4.6c-.1.1-.2.2-.3.3s-.3.1-.4.2h0c.3,0,.5.2.7.3s.3.3.4.4c.1.2.2.4.3.6s0,.4,0,.6c0,.4,0,.8-.2,1.1s-.4.6-.6.8-.6.4-.9.5-.8.2-1.2.2h-3v-8.5h0ZM164.3,283.1c.2,0,.5,0,.6,0s.4-.1.5-.3c.1,0,.2-.2.2-.4s0-.3,0-.5,0-.4,0-.5-.1-.2-.2-.3c-.1-.1-.3-.2-.5-.3s-.4,0-.7,0h-1.3v2.3h1.3ZM163,286.8h1.5c.2,0,.4,0,.6,0s.3-.1.4-.2c.1-.1.2-.2.3-.4s.1-.3.1-.5,0-.4,0-.5-.1-.3-.3-.4c-.1-.1-.3-.2-.4-.3s-.4,0-.6-.1h-1.6v2.6Z"/>
  </g>
  <g>
    <path class="st0" d="M243.3,14.6h7.1v2.1h-5.1l-.3,2.8c.2-.1.4-.2.8-.3s.7-.2,1.1-.2c.6,0,1.2.1,1.6.3.5.2.9.5,1.2.9.3.4.6.8.8,1.4s.3,1.1.3,1.8,0,1.1-.2,1.6-.4,1-.8,1.4-.8.7-1.3.9-1.2.3-1.9.3-1.1,0-1.6-.2c-.5-.2-1-.4-1.4-.7s-.7-.7-1-1.2-.4-1-.4-1.6h2.4c0,.6.3,1,.6,1.3.3.3.8.5,1.3.5s.6,0,.8-.2.4-.3.6-.5c.1-.2.2-.5.3-.8,0-.3.1-.6.1-1s0-.6-.1-.9c0-.3-.2-.5-.4-.7s-.4-.4-.7-.5-.6-.2-.9-.2-.4,0-.6,0-.3,0-.5.2-.2.1-.4.2-.2.2-.3.3l-1.9-.5.7-6.5h0Z"/>
    <path class="st0" d="M254.1,14.6h7.1v2.1h-5.1l-.3,2.8c.2-.1.4-.2.8-.3s.7-.2,1.1-.2c.6,0,1.2.1,1.6.3.5.2.9.5,1.2.9.3.4.6.8.8,1.4s.3,1.1.3,1.8,0,1.1-.2,1.6-.4,1-.8,1.4-.8.7-1.3.9-1.2.3-1.9.3-1.1,0-1.6-.2c-.5-.2-1-.4-1.4-.7s-.7-.7-1-1.2-.4-1-.4-1.6h2.4c0,.6.3,1,.6,1.3.3.3.8.5,1.3.5s.6,0,.8-.2.4-.3.6-.5c.1-.2.2-.5.3-.8,0-.3.1-.6.1-1s0-.6-.1-.9c0-.3-.2-.5-.4-.7s-.4-.4-.7-.5-.6-.2-.9-.2-.5,0-.6,0-.3,0-.5.2-.2.1-.4.2-.2.2-.3.3l-1.9-.5.7-6.5h0Z"/>
    <path class="st0" d="M275.7,26.5c-.3.2-.6.4-1,.5-.4.2-.8.3-1.3.4s-1,.1-1.5.1-.9,0-1.3-.2-.8-.3-1.1-.5c-.3-.2-.6-.5-.9-.8s-.5-.6-.7-1c-.2-.4-.4-.9-.5-1.5s-.2-1.1-.2-1.8v-1.7c0-.6,0-1.2.2-1.7.1-.5.3-1,.5-1.4.2-.4.4-.7.7-1s.5-.6.8-.8c.4-.2.8-.4,1.2-.6s.9-.2,1.3-.2c.7,0,1.4,0,1.9.3s1,.4,1.4.8c.4.4.7.8.9,1.3.2.5.4,1,.4,1.7h-2.4c0-.3-.1-.6-.2-.8s-.2-.4-.4-.6c-.2-.2-.4-.3-.6-.4s-.5-.1-.9-.1-.4,0-.5,0-.3.1-.5.2c-.2.1-.4.4-.5.6s-.3.5-.4.9c0,.3-.1.5-.2.9s0,.7,0,1v1.8c0,.5,0,.9,0,1.3s.1.7.3,1c0,.2.1.3.2.5s.2.3.3.4c.2.2.4.3.7.4s.5.1.9.1.4,0,.6,0,.4,0,.5-.1.3-.1.4-.2.2-.1.3-.2v-2.3h-2.1v-1.9h4.6v5c-.1.2-.4.4-.6.6h0Z"/>
    <path class="st0" d="M280.8,22.6v4.8h-2.5v-12.8h4.3c.7,0,1.4,0,1.9.2.6.2,1.1.4,1.5.7.4.3.7.7.9,1.2.2.5.3,1,.3,1.7s0,.9-.2,1.2c-.1.4-.3.7-.5,1-.2.3-.5.5-.7.8-.3.2-.6.4-1,.6l2.8,5.3h0c0,.1-2.6.1-2.6.1l-2.4-4.8h-1.9ZM282.6,20.6c.4,0,.7,0,1-.2s.5-.3.7-.5c.1-.2.3-.4.4-.6,0-.2.1-.5.1-.8s0-.6-.1-.9-.3-.5-.5-.6c-.2-.1-.4-.3-.7-.4s-.6-.1-.9-.1h-1.8v4h1.8,0Z"/>
  </g>
  <g>
    <path class="st0" d="M16.2,266c.4,0,.7,0,.9-.1.2-.1.5-.2.6-.4.1-.1.3-.3.3-.6s.1-.5.1-.7,0-.5-.1-.7-.2-.4-.3-.5-.3-.3-.6-.3-.5-.1-.8-.1-.5,0-.7.1-.4.2-.6.3c-.2.1-.3.3-.4.5s-.1.4-.1.6h-2.4c0-.5.1-1,.3-1.4s.5-.8.9-1.1c.4-.3.8-.5,1.3-.7s1.1-.2,1.6-.2,1.2,0,1.7.2c.5.2,1,.4,1.4.7.4.3.7.7.9,1.1s.3,1,.3,1.6,0,.5-.1.8-.2.5-.4.8-.4.5-.6.7c-.2.2-.5.4-.8.5.4.1.7.3.9.5s.5.4.6.7c.2.3.3.5.4.8s.1.6.1,1c0,.6-.1,1.1-.3,1.6s-.5.9-.9,1.2-.9.6-1.4.7c-.5.2-1.1.2-1.8.2s-1.1,0-1.6-.2c-.5-.1-1-.4-1.4-.7-.4-.3-.7-.7-1-1.1s-.4-1-.4-1.6h2.4c0,.2,0,.5.1.7s.2.4.4.5.4.3.6.4c.2,0,.5.1.8.1s.6,0,.9-.1.5-.2.6-.4c.2-.1.3-.3.4-.6s.1-.5.1-.8,0-.6-.1-.9-.2-.5-.4-.6c-.2-.2-.4-.3-.7-.4s-.6-.1-.9-.1h-1.3v-1.9h1.3Z"/>
    <path class="st0" d="M22.8,273.5v-1.7l4.1-4.5c.3-.4.6-.7.8-1s.4-.5.5-.8c.1-.2.2-.5.3-.7s0-.4,0-.6c0-.3,0-.5-.1-.8s-.2-.4-.3-.6c-.1-.1-.3-.3-.5-.4s-.4-.1-.7-.1-.6,0-.9.1-.5.2-.6.4c-.2.2-.3.4-.4.7s-.1.6-.1.9h-2.5c0-.6.1-1.1.3-1.6s.5-1,.9-1.3c.4-.4.9-.7,1.4-.9s1.2-.3,1.9-.3,1.2,0,1.7.3.9.4,1.3.8c.3.3.6.7.8,1.2.2.5.3,1,.3,1.5s0,.8-.2,1.2-.3.8-.6,1.1c-.2.4-.5.8-.9,1.1s-.7.8-1.1,1.2l-2.4,2.5h5.6v2h-8.7,0Z"/>
    <path class="st0" d="M34.8,260.7h7.1v2.1h-5.1l-.3,2.8c.2-.1.4-.2.8-.3s.7-.2,1.2-.2c.6,0,1.2.1,1.7.3s.9.5,1.2.9c.3.4.6.8.8,1.4s.3,1.1.3,1.8,0,1.1-.2,1.6-.4,1-.8,1.4-.8.7-1.3.9-1.2.3-1.9.3-1.1,0-1.6-.2-1-.4-1.4-.7-.7-.7-1-1.2-.4-1-.4-1.6h2.4c0,.6.3,1,.6,1.3s.8.5,1.3.5.6,0,.8-.2.4-.3.6-.5c.1-.2.2-.5.3-.8s0-.6,0-1,0-.6-.1-.9-.2-.5-.4-.7-.4-.4-.7-.5-.6-.2-.9-.2-.5,0-.6,0-.3,0-.5.2-.2.1-.4.2-.2.2-.3.3l-2-.5.7-6.5h0Z"/>
    <path class="st0" d="M52.8,270.8c-.2.6-.5,1.2-.8,1.6-.4.4-.8.8-1.3,1s-1.1.3-1.7.3-1.2-.1-1.7-.3-1-.5-1.3-1c-.4-.4-.6-1-.8-1.6-.2-.6-.3-1.4-.3-2.2v-3.1c0-.8,0-1.5.3-2.2s.5-1.2.8-1.6c.4-.4.8-.7,1.3-1,.5-.2,1.1-.3,1.7-.3s1.2.1,1.7.3,1,.5,1.3,1c.4.4.6,1,.8,1.6s.3,1.4.3,2.2v3.1c0,.8,0,1.5-.3,2.2h0ZM50.7,265c0-.5,0-.9-.2-1.2,0-.3-.2-.6-.4-.8-.1-.2-.3-.3-.5-.4-.2,0-.4-.1-.7-.1s-.5,0-.7.1c-.2.1-.4.3-.5.5-.2.2-.3.5-.3.8,0,.4-.1.8-.1,1.2v2.4l3.4-2.5h0ZM50.7,267.5v-.8l-3.4,2.5c0,.4,0,.7.1,1s.2.5.3.8c.1.2.3.4.5.5s.5.2.8.2.5,0,.7-.1.4-.3.5-.5c.2-.2.3-.5.3-.9,0-.4.1-.8.1-1.2v-1.5h0Z"/>
    <path class="st0" d="M24.4,284.3v3.6h-1.5v-8.5h5.6v1.2h-4.1v2.5h3.6v1.2h-3.6,0Z"/>
    <path class="st0" d="M31.6,287.9h-1.5v-8.5h2.9c.5,0,.9,0,1.2.2s.7.3,1,.5c.3.2.5.5.6.9s.2.7.2,1.1,0,.8-.2,1.1-.3.6-.6.8c-.3.2-.6.4-1,.5s-.8.2-1.2.2h-1.4v3.2h0ZM33,283.5c.2,0,.5,0,.6-.1s.3-.2.5-.3.2-.3.3-.4,0-.4,0-.5,0-.4,0-.6-.2-.3-.3-.5c-.1-.1-.3-.2-.5-.3s-.4-.1-.6-.1h-1.4v2.9h1.4Z"/>
    <path class="st0" d="M41.5,285.2c0-.1-.2-.3-.3-.4-.1-.1-.3-.2-.5-.3s-.5-.2-.7-.3c-.4-.1-.8-.3-1.2-.4s-.6-.4-.9-.6-.4-.5-.5-.7-.2-.6-.2-.9,0-.7.2-1,.4-.5.6-.7c.3-.2.6-.4.9-.5s.7-.2,1.2-.2.8,0,1.2.2.7.3,1,.5.5.5.6.8.2.7.2,1h-1.5c0-.2,0-.4-.1-.6s-.2-.3-.3-.4c-.1-.1-.3-.2-.5-.3s-.4-.1-.6-.1-.4,0-.6,0-.3.1-.5.2-.2.2-.3.4,0,.3,0,.5,0,.3.1.5.2.3.4.4c.2.1.3.2.6.3s.5.2.7.2c.3,0,.6.2.9.3s.5.3.8.4c.3.2.6.5.8.8s.3.7.3,1.1,0,.7-.2,1-.4.5-.6.7-.6.4-.9.5-.8.1-1.2.1-.8,0-1.2-.2-.8-.3-1.1-.6c-.3-.2-.5-.5-.7-.8s-.2-.7-.2-1.1h1.5c0,.3,0,.5.2.7s.2.3.4.5c.2.1.3.2.5.3s.4,0,.7,0,.4,0,.6,0,.3-.1.5-.2c.1,0,.2-.2.3-.4s.1-.3.1-.5,0-.3,0-.5h0Z"/>
  </g>
</svg>