<?xml version="1.0" encoding="UTF-8"?>
<svg id="Layer_1" xmlns="http://www.w3.org/2000/svg" version="1.1" viewBox="0 0 946.8 294.6">
  <!-- Generator: Adobe Illustrator 30.1.0, SVG Export Plug-In . SVG Version: 2.1.1 Build 136)  -->
  <defs>
    <style>
      .st0 {
        stroke-width: 5.4px;
      }

      .st0, .st1 {
        fill: none;
        stroke: #fff;
        stroke-miterlimit: 10;
      }

      .st1 {
        stroke-width: 5.3px;
      }

      .st2 {
        fill: #51b848;
      }

      .st3 {
        fill: #fff;
      }
    </style>
  </defs>
  <g>
    <g>
      <path class="st3" d="M54.3,219.4v28.5h-4.9v-28.5h4.9ZM57.6,247.9h-6.1v-3.9h6.1c1.8,0,3.2-.4,4.4-1.2s2.1-1.9,2.7-3.3c.6-1.4.9-3.1.9-5.1v-1.5c0-1.5-.2-2.9-.5-4.1s-.9-2.2-1.5-3-1.5-1.4-2.5-1.8-2.1-.6-3.4-.6h-6.4v-3.9h6.4c1.9,0,3.6.3,5.2.9,1.6.6,2.9,1.5,4.1,2.7s2,2.6,2.6,4.3c.6,1.7.9,3.5.9,5.6v1.5c0,2-.3,3.9-.9,5.6-.6,1.7-1.5,3.1-2.6,4.3-1.1,1.2-2.5,2.1-4.1,2.7-1.6.6-3.4.9-5.3.9Z"/>
      <path class="st3" d="M80.4,219.4v28.5h-4.9v-28.5h4.9ZM94,219.4v3.9h-15v-3.9h15ZM92.1,231.3v3.8h-13.1v-3.8h13.1ZM94.1,244v3.9h-15.1v-3.9h15.1Z"/>
      <path class="st3" d="M108.9,237.3h-7.4v-3.9h7.4c1.3,0,2.3-.2,3.1-.6.8-.4,1.4-1,1.7-1.7.4-.7.6-1.6.6-2.5s-.2-1.7-.6-2.5c-.4-.8-1-1.4-1.7-1.9-.8-.5-1.8-.7-3.1-.7h-5.9v24.6h-4.9v-28.5h10.8c2.2,0,4.1.4,5.6,1.2,1.5.8,2.7,1.8,3.5,3.2.8,1.4,1.2,2.9,1.2,4.7s-.4,3.4-1.2,4.7-2,2.3-3.5,3c-1.5.7-3.4,1.1-5.6,1.1Z"/>
      <path class="st3" d="M131.8,223.2l-8.5,24.7h-5.1l10.7-28.5h3.3l-.4,3.8ZM138.5,237.4v3.9h-15.5v-3.9h15.5ZM138.9,247.9l-8.5-24.7-.4-3.8h3.3l10.8,28.5h-5.2Z"/>
      <path class="st3" d="M147.2,219.4h10.1c2.2,0,4,.3,5.5,1s2.7,1.6,3.5,2.9,1.2,2.8,1.2,4.7-.3,2.7-.8,3.8c-.5,1.1-1.3,2-2.2,2.7-1,.7-2.1,1.3-3.4,1.7l-1.5.7h-9.1v-3.9s6.7,0,6.7,0c1.2,0,2.2-.2,2.9-.6.8-.4,1.4-1,1.8-1.7.4-.7.6-1.5.6-2.5s-.2-1.9-.6-2.6-1-1.3-1.8-1.7c-.8-.4-1.8-.6-3-.6h-5.2v24.6h-4.9v-28.5ZM163.5,247.9l-6.7-12.8h5.1s6.8,12.5,6.8,12.5v.3h-5.2Z"/>
      <path class="st3" d="M191.7,219.4v3.9h-22.7v-3.9h22.7ZM182.8,219.4v28.5h-4.9v-28.5h4.9Z"/>
      <path class="st3" d="M195.5,219.4h4.2l.7,19v9.5h-4.9v-28.5ZM197.5,219.4h4.4l8.2,22,8.2-22h4.4l-10.9,28.5h-3.5l-10.9-28.5ZM220.5,219.4h4.2v28.5h-4.9v-9.5l.7-19Z"/>
      <path class="st3" d="M235.4,219.4v28.5h-4.9v-28.5h4.9ZM249,219.4v3.9h-15v-3.9h15ZM247.2,231.3v3.8h-13.1v-3.8h13.1ZM249.1,244v3.9h-15.1v-3.9h15.1Z"/>
      <path class="st3" d="M275.7,219.4v28.5h-4.9l-12.8-20.4v20.4h-4.9v-28.5h4.9l12.8,20.4v-20.4h4.9Z"/>
      <path class="st3" d="M301.6,219.4v3.9h-22.7v-3.9h22.7ZM292.7,219.4v28.5h-4.9v-28.5h4.9Z"/>
      <path class="st3" d="M337.1,232.9v1.6c0,2.2-.3,4.1-.8,5.8-.6,1.7-1.4,3.2-2.4,4.4-1,1.2-2.3,2.1-3.7,2.7-1.4.6-3.1.9-4.8.9s-3.3-.3-4.8-.9c-1.4-.6-2.7-1.5-3.7-2.7-1.1-1.2-1.9-2.7-2.5-4.4-.6-1.7-.9-3.6-.9-5.8v-1.6c0-2.2.3-4.1.9-5.8.6-1.7,1.4-3.2,2.4-4.4,1-1.2,2.3-2.1,3.7-2.8,1.4-.6,3-.9,4.8-.9s3.4.3,4.8.9,2.7,1.6,3.7,2.8c1,1.2,1.8,2.7,2.4,4.4.6,1.7.9,3.6.9,5.8ZM332.2,234.5v-1.6c0-1.6-.2-3-.5-4.2-.3-1.2-.8-2.2-1.3-3.1-.6-.8-1.3-1.5-2.2-1.9-.9-.4-1.8-.6-2.9-.6s-2,.2-2.9.6c-.8.4-1.6,1-2.2,1.9-.6.8-1,1.9-1.4,3.1-.3,1.2-.5,2.6-.5,4.2v1.6c0,1.6.2,3,.5,4.2.3,1.2.8,2.3,1.4,3.1s1.3,1.5,2.2,1.9c.8.4,1.8.6,2.9.6s2.1-.2,2.9-.6c.8-.4,1.6-1.1,2.2-1.9s1-1.9,1.3-3.1c.3-1.2.5-2.6.5-4.2Z"/>
      <path class="st3" d="M346.9,219.4v28.5h-4.9v-28.5h4.9ZM360.1,219.4v3.9h-14.5v-3.9h14.5ZM358.5,231.9v3.9h-12.9v-3.9h12.9Z"/>
      <path class="st3" d="M374,219.4h10.1c2.2,0,4,.3,5.5,1s2.7,1.6,3.5,2.9,1.2,2.8,1.2,4.7-.3,2.7-.8,3.8c-.5,1.1-1.3,2-2.2,2.7-1,.7-2.1,1.3-3.4,1.7l-1.5.7h-9.1v-3.9s6.7,0,6.7,0c1.2,0,2.2-.2,2.9-.6.8-.4,1.4-1,1.8-1.7.4-.7.6-1.5.6-2.5s-.2-1.9-.6-2.6-1-1.3-1.8-1.7c-.8-.4-1.8-.6-3-.6h-5.2v24.6h-4.9v-28.5ZM390.2,247.9l-6.7-12.8h5.1s6.8,12.5,6.8,12.5v.3h-5.2Z"/>
      <path class="st3" d="M404.1,219.4v28.5h-4.9v-28.5h4.9ZM417.7,219.4v3.9h-15v-3.9h15ZM415.9,231.3v3.8h-13.1v-3.8h13.1ZM417.8,244v3.9h-15.1v-3.9h15.1Z"/>
      <path class="st3" d="M436.8,240.6c0-.6,0-1.1-.3-1.6-.2-.5-.5-.9-.9-1.3-.4-.4-1.1-.7-1.9-1.1-.8-.4-1.8-.7-3.1-1.1-1.4-.4-2.6-.9-3.7-1.4-1.1-.5-2.1-1.1-3-1.8-.8-.7-1.5-1.5-2-2.4s-.7-1.9-.7-3.1.2-2.2.7-3.2c.5-1,1.2-1.8,2.1-2.5.9-.7,2-1.2,3.2-1.6,1.2-.4,2.6-.6,4.1-.6s3.9.4,5.5,1.2c1.5.8,2.7,1.8,3.5,3.1.8,1.3,1.2,2.8,1.2,4.4h-4.9c0-.9-.2-1.8-.6-2.5-.4-.7-1-1.3-1.8-1.7s-1.8-.6-3-.6-2.1.2-2.9.5c-.8.4-1.3.8-1.7,1.4-.4.6-.6,1.3-.6,2s.1,1,.4,1.5c.2.4.6.8,1.1,1.2.5.4,1.1.7,1.9,1,.8.3,1.7.6,2.7.9,1.6.5,3,1,4.1,1.6s2.2,1.2,2.9,1.9c.8.7,1.4,1.5,1.8,2.4s.6,1.9.6,3.1-.2,2.3-.7,3.2c-.5,1-1.2,1.8-2.1,2.4-.9.7-2,1.2-3.2,1.5-1.2.4-2.6.5-4.2.5s-2.7-.2-4-.5-2.5-.9-3.6-1.7c-1.1-.7-1.9-1.7-2.6-2.8-.6-1.1-1-2.4-1-4h4.9c0,.9.2,1.7.5,2.4.3.7.8,1.2,1.3,1.6.6.4,1.2.7,2,.9.8.2,1.6.3,2.5.3s2.1-.2,2.9-.5c.8-.3,1.4-.8,1.7-1.4.4-.6.6-1.3.6-2Z"/>
      <path class="st3" d="M451,219.4v28.5h-4.9v-28.5h4.9ZM464.6,219.4v3.9h-15v-3.9h15ZM462.7,231.3v3.8h-13.1v-3.8h13.1ZM464.7,244v3.9h-15.1v-3.9h15.1Z"/>
      <path class="st3" d="M479.8,223.2l-8.5,24.7h-5.1l10.7-28.5h3.3l-.4,3.8ZM486.5,237.4v3.9h-15.5v-3.9h15.5ZM486.9,247.9l-8.5-24.7-.4-3.8h3.3l10.8,28.5h-5.2Z"/>
      <path class="st3" d="M495.2,219.4h10.1c2.2,0,4,.3,5.5,1,1.5.7,2.7,1.6,3.5,2.9.8,1.3,1.2,2.8,1.2,4.7s-.3,2.7-.8,3.8c-.5,1.1-1.3,2-2.2,2.7s-2.1,1.3-3.4,1.7l-1.5.7h-9.1v-3.9s6.7,0,6.7,0c1.2,0,2.2-.2,2.9-.6s1.4-1,1.8-1.7c.4-.7.6-1.5.6-2.5s-.2-1.9-.6-2.6-1-1.3-1.8-1.7c-.8-.4-1.8-.6-3-.6h-5.2v24.6h-4.9v-28.5ZM511.5,247.9l-6.7-12.8h5.1s6.8,12.5,6.8,12.5v.3h-5.2Z"/>
      <path class="st3" d="M537.3,238.6h4.9c-.2,1.9-.7,3.5-1.6,5-.9,1.5-2.1,2.6-3.7,3.4-1.6.8-3.6,1.3-5.8,1.3s-3.3-.3-4.8-.9c-1.4-.6-2.6-1.5-3.6-2.7-1-1.2-1.8-2.6-2.3-4.2-.5-1.7-.8-3.5-.8-5.6v-2.4c0-2,.3-3.9.8-5.6.5-1.7,1.3-3.1,2.3-4.3,1-1.2,2.2-2.1,3.7-2.7,1.4-.6,3-.9,4.8-.9s4.2.4,5.7,1.3c1.6.8,2.8,2,3.6,3.5s1.4,3.2,1.6,5.1h-4.9c-.1-1.2-.4-2.3-.9-3.1s-1.1-1.5-1.9-2c-.8-.5-2-.7-3.3-.7s-2.1.2-2.9.6c-.8.4-1.5,1-2.1,1.8s-1,1.8-1.3,3c-.3,1.2-.4,2.5-.4,4v2.4c0,1.4.1,2.7.4,3.9.3,1.2.6,2.2,1.2,3,.5.8,1.2,1.5,2,1.9.8.5,1.8.7,3,.7s2.5-.2,3.4-.7c.9-.4,1.5-1.1,2-1.9s.7-1.9.9-3.1Z"/>
      <path class="st3" d="M551.5,219.4v28.5h-4.9v-28.5h4.9ZM565.4,231.3v3.9h-15.1v-3.9h15.1ZM569.2,219.4v28.5h-4.9v-28.5h4.9Z"/>
      <path class="st3" d="M589.4,232.4l4.9-3.3c.8-.5,1.4-1.1,1.8-1.6.4-.5.5-1.2.5-2s-.3-1.3-.8-1.9-1.3-.9-2.2-.9-1.2.2-1.7.5c-.5.3-.8.7-1,1.2-.2.5-.3,1.1-.3,1.7s.2,1.2.5,1.8c.3.6.7,1.3,1.2,1.9.5.7,1.1,1.4,1.8,2.2l13.5,15.9h-5.5l-11-12.9c-1-1.1-1.8-2.2-2.5-3.2-.7-1-1.3-1.9-1.7-2.8s-.6-1.8-.6-2.8c0-1.5.3-2.8.9-3.8.6-1.1,1.5-1.9,2.6-2.5,1.1-.6,2.4-.9,3.9-.9s2.7.3,3.7.9c1,.6,1.9,1.3,2.4,2.3.6,1,.9,2,.9,3.1s-.2,1.7-.5,2.5c-.3.7-.8,1.4-1.3,2-.6.6-1.2,1.2-2,1.7l-6,4.3c-.7.6-1.2,1.1-1.5,1.6-.3.5-.6,1-.7,1.4-.1.4-.2.8-.2,1.1,0,.8.2,1.6.5,2.3.4.7.9,1.2,1.6,1.6.7.4,1.5.6,2.6.6s2.1-.2,3.1-.7c1-.5,1.9-1.2,2.7-2.1s1.4-2,1.9-3.2c.5-1.3.7-2.6.7-4.2h4.1c0,1.4-.1,2.7-.4,3.9-.3,1.2-.7,2.4-1.3,3.4-.6,1.1-1.3,2-2.3,2.8,0,0-.2.2-.3.3-.1.1-.2.3-.3.3-1.1,1-2.4,1.8-3.8,2.3-1.4.5-2.9.8-4.4.8s-3.5-.3-4.9-1c-1.4-.7-2.4-1.6-3.2-2.9s-1.1-2.6-1.1-4.2.2-2.2.7-3.1,1.1-1.7,2-2.5c.8-.8,1.8-1.5,2.9-2.3Z"/>
      <path class="st3" d="M625.5,219.4v28.5h-4.9v-28.5h4.9ZM628.8,247.9h-6.1v-3.9h6.1c1.8,0,3.2-.4,4.4-1.2,1.2-.8,2.1-1.9,2.7-3.3.6-1.4.9-3.1.9-5.1v-1.5c0-1.5-.2-2.9-.5-4.1-.3-1.2-.9-2.2-1.5-3-.7-.8-1.5-1.4-2.5-1.8-1-.4-2.1-.6-3.4-.6h-6.4v-3.9h6.4c1.9,0,3.6.3,5.2.9s2.9,1.5,4.1,2.7,2,2.6,2.6,4.3c.6,1.7.9,3.5.9,5.6v1.5c0,2-.3,3.9-.9,5.6-.6,1.7-1.5,3.1-2.6,4.3-1.1,1.2-2.5,2.1-4.1,2.7-1.6.6-3.4.9-5.3.9Z"/>
      <path class="st3" d="M651.6,219.4v28.5h-4.9v-28.5h4.9ZM665.3,219.4v3.9h-15v-3.9h15ZM663.4,231.3v3.8h-13.1v-3.8h13.1ZM665.4,244v3.9h-15.1v-3.9h15.1Z"/>
      <path class="st3" d="M672.2,219.4l7.4,23.3,1,5.2h-3.7l-10.2-28.5h5.4ZM679.1,242.7l7.5-23.3h5.4l-10.2,28.5h-3.7l1-5.2Z"/>
      <path class="st3" d="M700.1,219.4v28.5h-4.9v-28.5h4.9ZM713.7,219.4v3.9h-15v-3.9h15ZM711.9,231.3v3.8h-13.1v-3.8h13.1ZM713.8,244v3.9h-15.1v-3.9h15.1Z"/>
      <path class="st3" d="M722.7,219.4v28.5h-4.9v-28.5h4.9ZM735.6,244v3.9h-14.3v-3.9h14.3Z"/>
      <path class="st3" d="M760.9,232.9v1.6c0,2.2-.3,4.1-.8,5.8-.6,1.7-1.4,3.2-2.4,4.4-1,1.2-2.3,2.1-3.7,2.7-1.4.6-3.1.9-4.8.9s-3.3-.3-4.8-.9c-1.4-.6-2.7-1.5-3.7-2.7-1.1-1.2-1.9-2.7-2.5-4.4s-.9-3.6-.9-5.8v-1.6c0-2.2.3-4.1.9-5.8s1.4-3.2,2.4-4.4c1-1.2,2.3-2.1,3.7-2.8,1.4-.6,3-.9,4.8-.9s3.4.3,4.8.9c1.4.6,2.7,1.6,3.7,2.8,1,1.2,1.8,2.7,2.4,4.4s.9,3.6.9,5.8ZM756,234.5v-1.6c0-1.6-.2-3-.5-4.2-.3-1.2-.8-2.2-1.3-3.1-.6-.8-1.3-1.5-2.2-1.9-.9-.4-1.8-.6-2.9-.6s-2,.2-2.9.6c-.8.4-1.6,1-2.2,1.9-.6.8-1,1.9-1.4,3.1-.3,1.2-.5,2.6-.5,4.2v1.6c0,1.6.2,3,.5,4.2.3,1.2.8,2.3,1.4,3.1s1.3,1.5,2.2,1.9c.8.4,1.8.6,2.9.6s2.1-.2,2.9-.6c.8-.4,1.6-1.1,2.2-1.9.6-.8,1-1.9,1.3-3.1.3-1.2.5-2.6.5-4.2Z"/>
      <path class="st3" d="M776.6,237.3h-7.4v-3.9h7.4c1.3,0,2.3-.2,3.1-.6s1.4-1,1.7-1.7.6-1.6.6-2.5-.2-1.7-.6-2.5c-.4-.8-1-1.4-1.7-1.9s-1.8-.7-3.1-.7h-5.9v24.6h-4.9v-28.5h10.8c2.2,0,4.1.4,5.6,1.2,1.5.8,2.7,1.8,3.5,3.2.8,1.4,1.2,2.9,1.2,4.7s-.4,3.4-1.2,4.7c-.8,1.3-2,2.3-3.5,3-1.5.7-3.4,1.1-5.6,1.1Z"/>
      <path class="st3" d="M791.3,219.4h4.2l.7,19v9.5h-4.9v-28.5ZM793.3,219.4h4.4l8.2,22,8.2-22h4.4l-10.9,28.5h-3.5l-10.9-28.5ZM816.3,219.4h4.2v28.5h-4.9v-9.5l.7-19Z"/>
      <path class="st3" d="M831.2,219.4v28.5h-4.9v-28.5h4.9ZM844.9,219.4v3.9h-15v-3.9h15ZM843,231.3v3.8h-13.1v-3.8h13.1ZM845,244v3.9h-15.1v-3.9h15.1Z"/>
      <path class="st3" d="M871.5,219.4v28.5h-4.9l-12.8-20.4v20.4h-4.9v-28.5h4.9l12.8,20.4v-20.4h4.9Z"/>
      <path class="st3" d="M897.4,219.4v3.9h-22.7v-3.9h22.7ZM888.5,219.4v28.5h-4.9v-28.5h4.9Z"/>
    </g>
    <g>
      <g>
        <path class="st3" d="M165.2,56.1v109.6H55.6V56.1h109.6M171.4,49.8H49.3v122.1h122.1V49.8h0Z"/>
        <g>
          <path class="st3" d="M95.2,93.7l-13.7,39.7h-8.3l17.3-45.8h5.3l-.6,6.1ZM106,116.5v6.3h-24.9v-6.3h24.9ZM106.7,133.5l-13.7-39.7-.6-6.1h5.3l17.3,45.8h-8.3Z"/>
          <path class="st3" d="M139.7,112.8v4.7c0,0-5.4,0-5.4,0-1.4,0-2.6.1-3.7.4s-2,.6-2.7,1.1c-.7.5-1.2,1.1-1.6,1.8-.3.7-.5,1.5-.5,2.4s.2,1.7.6,2.5c.4.7,1,1.3,1.8,1.7.8.4,1.8.6,2.9.6s2.9-.3,4.1-1c1.2-.6,2.1-1.4,2.8-2.4.7-.9,1-1.8,1.1-2.7l2.5,3.4c-.2.9-.7,1.8-1.3,2.8-.6,1-1.4,1.9-2.4,2.8s-2.1,1.6-3.5,2.2c-1.4.6-2.9.9-4.7.9s-4.2-.4-5.9-1.3c-1.7-.9-3.1-2.1-4.1-3.6-1-1.5-1.5-3.2-1.5-5.2s.3-3.4,1-4.8c.7-1.4,1.7-2.6,3-3.5,1.3-.9,3-1.7,4.9-2.2s4.1-.7,6.6-.7h6ZM138.6,126.6v-16.2c0-1.2-.2-2.3-.7-3.1-.4-.9-1.1-1.6-2-2.1-.9-.5-2-.7-3.3-.7s-2.3.2-3.2.6c-.9.4-1.6,1-2.1,1.7-.5.7-.8,1.5-.8,2.4h-7.6c0-1.3.3-2.6,1-3.9.7-1.3,1.6-2.4,2.8-3.4,1.2-1,2.7-1.8,4.4-2.3,1.7-.6,3.7-.9,5.8-.9s4.8.4,6.8,1.3c2,.9,3.5,2.2,4.7,3.9s1.7,3.9,1.7,6.5v15.1c0,1.5.1,2.9.3,4.2.2,1.2.5,2.3,1,3.2v.5h-7.8c-.4-.8-.6-1.9-.8-3.1s-.3-2.5-.3-3.7Z"/>
        </g>
      </g>
      <g>
        <g>
          <path class="st3" d="M215.2,60.8l-11.8,38.2h-12.5l17.8-48.4h7.9l-1.4,10.2ZM224.5,81v9h-24.8v-9h24.8ZM224.9,99.1l-11.8-38.2-1.5-10.2h8l17.9,48.4h-12.6Z"/>
          <path class="st3" d="M275,50.7v9h-40.5v-9h40.5ZM260.5,50.7v48.4h-11.7v-48.4h11.7Z"/>
          <path class="st3" d="M320,73.9v2c0,3.7-.5,7-1.5,10s-2.5,5.4-4.4,7.5-4.1,3.7-6.7,4.8c-2.6,1.1-5.4,1.6-8.5,1.6s-6-.5-8.6-1.6-4.8-2.7-6.7-4.8c-1.9-2.1-3.4-4.6-4.4-7.5s-1.5-6.3-1.5-10v-2c0-3.7.5-7,1.5-10s2.5-5.5,4.4-7.5,4.1-3.7,6.7-4.8,5.4-1.6,8.6-1.6,5.9.5,8.5,1.6,4.8,2.7,6.7,4.8,3.3,4.6,4.4,7.5,1.6,6.3,1.6,10ZM308.2,75.9v-2c0-2.4-.2-4.5-.6-6.3s-1-3.4-1.8-4.6-1.8-2.2-2.9-2.8c-1.2-.6-2.5-.9-4-.9s-2.9.3-4.1.9c-1.2.6-2.1,1.6-2.9,2.8s-1.4,2.8-1.7,4.6-.6,3.9-.6,6.3v2c0,2.4.2,4.5.6,6.3s1,3.4,1.8,4.6,1.8,2.2,2.9,2.9,2.5,1,4.1,1,2.8-.3,4-1,2.1-1.6,2.9-2.9,1.4-2.8,1.8-4.6.6-3.9.6-6.3Z"/>
          <path class="st3" d="M326.1,50.7h9.8l1.8,37.1v11.3h-11.7v-48.4ZM331.9,50.7h9.5l10.8,33.7,10.8-33.7h9.5l-16.5,48.4h-7.7l-16.5-48.4ZM368.4,50.7h9.9v48.4h-11.7v-11.3l1.8-37.1Z"/>
          <path class="st3" d="M398.2,50.7v48.4h-11.6v-48.4h11.6Z"/>
          <path class="st3" d="M433.9,82.7h11.6c-.2,3.4-1.1,6.3-2.7,8.9s-4,4.6-6.9,6c-2.9,1.4-6.4,2.1-10.4,2.1s-6.1-.5-8.7-1.6-4.7-2.6-6.5-4.7-3.1-4.5-4-7.4-1.4-6.2-1.4-9.8v-2.6c0-3.6.5-6.9,1.4-9.8,1-2.9,2.3-5.4,4.1-7.4s3.9-3.6,6.4-4.7c2.5-1.1,5.3-1.6,8.3-1.6s7.8.8,10.7,2.3,5.2,3.6,6.8,6.2,2.5,5.6,2.8,9h-11.6c0-1.8-.4-3.3-.9-4.6s-1.5-2.2-2.7-2.8-2.9-.9-5-.9-2.7.3-3.8.8-2,1.4-2.7,2.5c-.7,1.2-1.2,2.6-1.6,4.5s-.5,4-.5,6.6v2.7c0,2.6.2,4.8.5,6.6s.8,3.3,1.5,4.5,1.6,2,2.7,2.5,2.4.8,4,.8,3.3-.3,4.5-.8,2.2-1.4,2.8-2.6,1-2.7,1.1-4.5Z"/>
          <path class="st3" d="M488.5,60.8l-11.8,38.2h-12.5l17.8-48.4h7.9l-1.4,10.2ZM497.8,81v9h-24.8v-9h24.8ZM498.3,99.1l-11.8-38.2-1.5-10.2h8l17.9,48.4h-12.6Z"/>
          <path class="st3" d="M514.4,50.7h9.8l1.8,37.1v11.3h-11.7v-48.4ZM520.2,50.7h9.5l10.8,33.7,10.8-33.7h9.5l-16.5,48.4h-7.7l-16.5-48.4ZM556.7,50.7h9.9v48.4h-11.7v-11.3l1.8-37.1Z"/>
          <path class="st3" d="M574.1,50.7h9.8l1.8,37.1v11.3h-11.7v-48.4ZM579.9,50.7h9.5l10.8,33.7,10.8-33.7h9.5l-16.5,48.4h-7.7l-16.5-48.4ZM616.4,50.7h9.9v48.4h-11.7v-11.3l1.8-37.1Z"/>
          <path class="st3" d="M660,50.7h11.7v31.6c0,3.8-.8,7-2.4,9.6s-3.8,4.6-6.6,5.9c-2.8,1.3-6.2,2-10,2s-7.1-.7-10-2-5.1-3.3-6.7-5.9-2.4-5.8-2.4-9.6v-31.6h11.7v31.6c0,2,.3,3.6.9,4.9s1.4,2.2,2.5,2.7,2.4.9,4,.9,2.9-.3,4-.9,1.9-1.5,2.5-2.7.8-2.9.8-4.9v-31.6Z"/>
          <path class="st3" d="M719.4,50.7v48.4h-11.6l-17.1-30.1v30.1h-11.7v-48.4h11.7l17.1,30.1v-30.1h11.6Z"/>
          <path class="st3" d="M739.2,50.7v48.4h-11.6v-48.4h11.6Z"/>
          <path class="st3" d="M784.5,50.7v9h-40.5v-9h40.5ZM769.9,50.7v48.4h-11.7v-48.4h11.7Z"/>
          <path class="st3" d="M801.8,50.7v48.4h-11.6v-48.4h11.6Z"/>
          <path class="st3" d="M851,73.9v2c0,3.7-.5,7-1.5,10s-2.5,5.4-4.4,7.5c-1.9,2.1-4.1,3.7-6.7,4.8s-5.4,1.6-8.5,1.6-6-.5-8.6-1.6-4.8-2.7-6.7-4.8-3.4-4.6-4.4-7.5-1.5-6.3-1.5-10v-2c0-3.7.5-7,1.5-10s2.5-5.5,4.4-7.5c1.9-2.1,4.1-3.7,6.7-4.8s5.4-1.6,8.6-1.6,5.9.5,8.5,1.6,4.8,2.7,6.7,4.8c1.9,2.1,3.3,4.6,4.4,7.5,1,2.9,1.6,6.3,1.6,10ZM839.1,75.9v-2c0-2.4-.2-4.5-.6-6.3s-1-3.4-1.8-4.6-1.8-2.2-2.9-2.8c-1.2-.6-2.5-.9-4-.9s-2.9.3-4.1.9c-1.2.6-2.1,1.6-2.9,2.8s-1.4,2.8-1.7,4.6c-.4,1.8-.6,3.9-.6,6.3v2c0,2.4.2,4.5.6,6.3.4,1.8,1,3.4,1.8,4.6s1.8,2.2,2.9,2.9,2.5,1,4.1,1,2.8-.3,4-1,2.1-1.6,2.9-2.9,1.4-2.8,1.8-4.6.6-3.9.6-6.3Z"/>
          <path class="st3" d="M897.4,50.7v48.4h-11.6l-17.1-30.1v30.1h-11.7v-48.4h11.7l17.1,30.1v-30.1h11.6Z"/>
        </g>
        <g>
          <path class="st3" d="M190.8,119.6h15.4c2.1,0,4.2.3,6.2.8s3.8,1.4,5.4,2.5,2.9,2.5,3.8,4.3,1.4,3.8,1.4,6.2c0,1.3-.2,2.6-.7,3.7s-1,2.1-1.7,3c-.7.9-1.5,1.7-2.4,2.3s-2,1.2-3.2,1.7h0c1.3.4,2.6,1,3.8,1.8s2.2,1.7,3,2.7c.8,1.1,1.5,2.3,1.9,3.6s.7,2.8.7,4.3c0,2.4-.4,4.5-1.4,6.4s-2.2,3.4-3.8,4.6c-1.6,1.3-3.4,2.2-5.5,2.9s-4.2,1-6.4,1h-16.5v-51.7ZM206.6,141.7c1.2,0,2.4-.2,3.6-.6s2.2-.9,3.2-1.6c.9-.7,1.7-1.5,2.2-2.6s.9-2.2.9-3.6-.3-2.7-.8-3.7-1.3-1.9-2.2-2.5c-.9-.6-2-1.1-3.2-1.4s-2.5-.5-3.7-.5h-9v16.4h9.2ZM197.4,165.8h10.1c1.4,0,2.7-.3,3.9-.7s2.3-1,3.3-1.8,1.7-1.7,2.3-2.9.8-2.4.8-3.9c0-1.5-.2-2.8-.7-3.9s-1.2-2.1-2.1-2.9c-.9-.8-2-1.4-3.2-1.8s-2.5-.7-3.9-.7h-10.5v18.6Z"/>
          <path class="st3" d="M241.9,157.9l-4.2,13.4h-6.6l16.7-51.7h5.5l16.4,51.7h-6.5l-4.1-13.4h-17.3ZM257.5,152.2l-6.8-22.4-6.9,22.4h13.7Z"/>
          <path class="st3" d="M310.9,165.8v5.6h-31.8v-51.7h6.6v46.1h25.3Z"/>
          <path class="st3" d="M354.5,165.8v5.6h-31.8v-51.7h6.6v46.1h25.3Z"/>
          <path class="st3" d="M396.7,119.6v5.7h-12.4v40.3h12.4v5.7h-31.2v-5.7h12.1v-40.3h-12.1v-5.7h31.2Z"/>
          <path class="st3" d="M435,154.3c-.7-1.1-1.7-2-2.8-2.8-1.1-.7-2.4-1.3-3.7-1.8s-2.7-.9-3.9-1.3c-1.8-.6-3.7-1.3-5.6-2.1s-3.6-1.9-5.1-3c-1.6-1.2-2.8-2.6-3.8-4.3s-1.5-3.6-1.5-5.8.5-4.2,1.5-6,2.3-3.2,3.9-4.4,3.4-2.1,5.4-2.8,4-.9,6.1-.9,4.4.4,6.5,1.1,3.9,1.8,5.5,3.1,2.9,3,3.9,4.9,1.5,4.1,1.5,6.4h-6.7c-.2-1.5-.6-2.8-1.1-4.1s-1.3-2.3-2.2-3.1-2-1.6-3.2-2-2.6-.7-4.2-.7-2.5.2-3.7.5-2.3.9-3.2,1.6c-.9.7-1.7,1.6-2.3,2.6s-.8,2.2-.8,3.6c0,1.5.4,2.8,1.1,3.8s1.7,1.9,2.8,2.6c1.1.7,2.3,1.3,3.6,1.8s2.6.9,3.7,1.2c1.9.6,3.8,1.3,5.8,2.1s3.7,1.9,5.3,3.2c1.6,1.2,2.8,2.7,3.8,4.4s1.4,3.8,1.4,6.1-.5,4.3-1.5,6.1-2.4,3.2-4,4.3c-1.6,1.2-3.5,2-5.5,2.6s-4.1.9-6.2.9-4.9-.4-7.3-1.2-4.4-2-6.2-3.6c-1.6-1.3-2.8-2.9-3.7-4.7s-1.4-3.8-1.5-6.1h6.7c.2,1.6.7,3,1.3,4.3s1.5,2.3,2.6,3.1c1,.9,2.2,1.5,3.6,2s2.8.7,4.5.7,2.5-.2,3.8-.5,2.3-.8,3.3-1.5c1-.7,1.8-1.5,2.4-2.5s.9-2.3.9-3.7-.4-2.9-1.1-4Z"/>
          <path class="st3" d="M471.6,125.2v46.1h-6.4v-46.1h-16v-5.6h38.3v5.6h-16Z"/>
          <path class="st3" d="M527.6,119.6v5.7h-12.4v40.3h12.4v5.7h-31.2v-5.7h12.1v-40.3h-12.1v-5.7h31.2Z"/>
          <path class="st3" d="M571.6,162.4c-.9,2-2.1,3.7-3.6,5.1-1.5,1.4-3.2,2.6-5.3,3.4s-4.3,1.2-6.8,1.2-4.1-.3-5.8-.9c-1.7-.6-3.3-1.4-4.6-2.5-1.4-1.1-2.6-2.3-3.5-3.8s-1.8-3-2.4-4.7c-.7-1.7-1.2-3.5-1.5-5.4s-.5-3.8-.5-5.7v-7.2c0-1.9.2-3.8.5-5.7s.8-3.7,1.5-5.4c.6-1.7,1.4-3.3,2.4-4.7s2.2-2.7,3.5-3.8c1.3-1.1,2.9-1.9,4.6-2.5s3.7-.9,5.8-.9,4.9.4,6.9,1.2c2,.8,3.8,1.9,5.3,3.4,1.5,1.5,2.6,3.2,3.5,5.3s1.5,4.3,1.8,6.7h-6.6c-.2-1.6-.6-3-1.1-4.4s-1.2-2.5-2.1-3.6-1.9-1.8-3.2-2.4-2.8-.9-4.5-.9-2.9.3-4.1.8-2.2,1.2-3.1,2.1c-.9.9-1.6,1.9-2.2,3.1s-1,2.4-1.4,3.7-.6,2.6-.8,4-.2,2.7-.2,4v7.3c0,1.3,0,2.6.2,4s.4,2.7.8,4c.4,1.3.8,2.6,1.4,3.7s1.3,2.2,2.2,3.1c.9.9,1.9,1.6,3.1,2.1s2.6.8,4.2.8,3.2-.3,4.5-.8,2.3-1.3,3.2-2.3c.9-1,1.6-2.1,2.1-3.5s.9-2.8,1.1-4.3h6.6c-.3,2.4-.9,4.6-1.8,6.6Z"/>
          <path class="st3" d="M609.6,154.3c-.7-1.1-1.7-2-2.8-2.8-1.1-.7-2.4-1.3-3.7-1.8s-2.7-.9-3.9-1.3c-1.8-.6-3.7-1.3-5.6-2.1s-3.6-1.9-5.1-3c-1.6-1.2-2.8-2.6-3.8-4.3s-1.5-3.6-1.5-5.8.5-4.2,1.5-6,2.3-3.2,3.9-4.4,3.4-2.1,5.4-2.8,4-.9,6.1-.9,4.4.4,6.5,1.1,3.9,1.8,5.5,3.1,2.9,3,3.9,4.9,1.5,4.1,1.5,6.4h-6.7c-.2-1.5-.6-2.8-1.1-4.1s-1.3-2.3-2.2-3.1-2-1.6-3.2-2-2.6-.7-4.2-.7-2.5.2-3.7.5-2.3.9-3.2,1.6c-.9.7-1.7,1.6-2.3,2.6s-.8,2.2-.8,3.6c0,1.5.4,2.8,1.1,3.8s1.7,1.9,2.8,2.6c1.1.7,2.3,1.3,3.6,1.8s2.6.9,3.7,1.2c1.9.6,3.8,1.3,5.8,2.1s3.7,1.9,5.3,3.2c1.6,1.2,2.8,2.7,3.8,4.4s1.4,3.8,1.4,6.1-.5,4.3-1.5,6.1-2.4,3.2-4,4.3c-1.6,1.2-3.5,2-5.5,2.6s-4.1.9-6.2.9-4.9-.4-7.3-1.2-4.4-2-6.2-3.6c-1.6-1.3-2.8-2.9-3.7-4.7s-1.4-3.8-1.5-6.1h6.7c.2,1.6.7,3,1.3,4.3s1.5,2.3,2.6,3.1c1,.9,2.2,1.5,3.6,2s2.8.7,4.5.7,2.5-.2,3.8-.5,2.3-.8,3.3-1.5c1-.7,1.8-1.5,2.4-2.5s.9-2.3.9-3.7-.4-2.9-1.1-4Z"/>
          <path class="st3" d="M703.6,165.8v5.6h-31.8v-51.7h6.6v46.1h25.3Z"/>
          <path class="st3" d="M722,157.9l-4.2,13.4h-6.6l16.7-51.7h5.5l16.4,51.7h-6.5l-4.1-13.4h-17.3ZM737.5,152.2l-6.8-22.4-6.9,22.4h13.7Z"/>
          <path class="st3" d="M758.1,119.6h15.4c2.1,0,4.2.3,6.2.8s3.8,1.4,5.4,2.5,2.9,2.5,3.8,4.3,1.4,3.8,1.4,6.2c0,1.3-.2,2.6-.7,3.7s-1,2.1-1.7,3c-.7.9-1.5,1.7-2.4,2.3s-2,1.2-3.2,1.7h0c1.3.4,2.6,1,3.8,1.8s2.2,1.7,3,2.7c.8,1.1,1.5,2.3,1.9,3.6s.7,2.8.7,4.3c0,2.4-.4,4.5-1.4,6.4s-2.2,3.4-3.8,4.6c-1.6,1.3-3.4,2.2-5.5,2.9s-4.2,1-6.4,1h-16.5v-51.7ZM773.9,141.7c1.2,0,2.4-.2,3.6-.6s2.2-.9,3.2-1.6c.9-.7,1.7-1.5,2.2-2.6s.9-2.2.9-3.6-.3-2.7-.8-3.7-1.3-1.9-2.2-2.5c-.9-.6-2-1.1-3.2-1.4s-2.5-.5-3.7-.5h-9v16.4h9.2ZM764.7,165.8h10.1c1.4,0,2.7-.3,3.9-.7s2.3-1,3.3-1.8,1.7-1.7,2.3-2.9.8-2.4.8-3.9c0-1.5-.2-2.8-.7-3.9s-1.2-2.1-2.1-2.9c-.9-.8-2-1.4-3.2-1.8s-2.5-.7-3.9-.7h-10.5v18.6Z"/>
          <path class="st2" d="M831.2,171.3l18.2-51.7h7.8l-18.2,51.7h-7.8Z"/>
          <path class="st2" d="M871.4,171.3l18.2-51.7h7.8l-18.2,51.7h-7.8Z"/>
        </g>
      </g>
    </g>
    <line class="st1" x1="49.3" y1="194.4" x2="897.4" y2="194.4"/>
  </g>
  <rect class="st0" x="20.5" y="21.6" width="905.8" height="255"/>
</svg>