<?xml version="1.0" encoding="UTF-8"?>
<svg xmlns="http://www.w3.org/2000/svg" version="1.1" viewBox="0 0 1000 1000">
  <!-- Generator: Adobe Illustrator 30.1.0, SVG Export Plug-In . SVG Version: 2.1.1 Build 136)  -->
  <defs>
    <style>
      .st0 {
        isolation: isolate;
      }

      .st1 {
        mix-blend-mode: darken;
      }

      .st2 {
        fill: #cccccb;
      }
    </style>
  </defs>
  <g class="st0">
    <g id="Layer_1">
      <g class="st1">
        <path class="st2" d="M816.4,500c130.9-101.6,203.8-199.6,174.7-248.8-28.9-48.8-150.5-36.8-304.5,21.8C661.9,112.4,611.5,2.5,553.5,2.5s-109,111.2-133.7,273.4c-157.4-61-282.5-74.3-311.8-24.7-14.9,25.2-3,63.2,29.7,108h31c-9.4-23.2-10.3-43.2-1.2-58.5,25.6-43.2,123.7-38.2,248.2,5.1-2.2,17.3-4.1,35.1-5.7,53.4h27.8c1.7-14.8,3.6-29.2,5.8-43.2,53.1,20.3,110.1,47,167.8,79.5,59,33.2,112.4,69,157.6,104.5-45.2,35.5-98.5,71.2-157.6,104.5-57.7,32.5-114.7,59.2-167.8,79.5-1.8-11.7-3.5-23.7-5-35.9h-28c1.5,15.7,3.2,31.1,5.1,46.1-124.5,43.3-222.6,48.3-248.2,5.1-8.1-13.7-8.2-31.1-1.5-51.2h-33.5c-28.8,41.6-38.6,76.8-24.5,100.7,29.4,49.6,154.5,36.4,311.8-24.7,24.7,162.2,75.3,273.4,133.7,273.4s108.4-109.9,133.2-270.6c153.9,58.6,275.6,70.7,304.5,21.8,29.1-49.2-43.8-147.2-174.7-248.8h0ZM624.4,373.5c-60.3-34-119.8-62.9-175.9-86.1,23.9-125.6,68.3-210,119.1-210s92,78.5,116.4,196.6c-20.9,8-42.4,16.9-64.3,26.5,22.3-9.1,44-17,64.9-23.9,4.1,20.3,7.7,41.8,10.7,64.3-2.3-22.5-5-44.2-8.2-65.1,116-37.7,206.1-40.3,230.4.9,25.3,42.8-26.9,122-125.6,204.7-49.4-36.5-105.9-73.2-167.5-107.9h0ZM917.5,723.3c-24.3,41.1-114.4,38.6-230.4.9,3.2-20.9,5.9-42.6,8.2-65.1-3,22.4-6.6,43.9-10.7,64.3-20.9-6.9-42.6-14.8-64.9-23.9,21.9,9.7,43.4,18.5,64.3,26.5-24.4,118.2-67.5,196.6-116.4,196.6s-95.2-84.4-119.1-210c56.1-23.2,115.6-52.1,175.9-86.1,61.6-34.7,118.1-71.3,167.5-107.9,98.7,82.6,151,161.9,125.6,204.7h0Z"/>
        <g>
          <polygon class="st2" points="263.1 515.8 240.9 605 294.6 605 310.2 542.4 408.5 542.4 392.9 605 447.1 605 469.4 515.8 263.1 515.8"/>
          <path class="st2" d="M323.7,488.3l8.9-35.5h98.2l-8.9,35.5h54.3l10.5-42.1c2.1-8.5,1.9-16.4-.7-23.5-2.6-7.1-7-12.9-13.1-17.2-6.1-4.3-13.5-6.4-22.1-6.4h-114.2c-8.1,0-16.2,2-24,6-7.7,3.9-14.4,9.3-20,15.8-5.6,6.7-9.6,14.2-11.6,22.4l-11.2,44.9h53.7Z"/>
        </g>
        <g>
          <polygon class="st2" points="24.7 515.8 2.5 605 56.2 605 71.8 542.4 170.1 542.4 154.5 605 208.7 605 231 515.8 24.7 515.8"/>
          <path class="st2" d="M85.3,488.3l8.9-35.5h98.2l-8.9,35.5h54.3l10.5-42.1c2.1-8.5,1.9-16.4-.7-23.5-2.6-7.1-7-12.9-13.1-17.2-6.1-4.3-13.5-6.4-22.1-6.4h-114.2c-8.1,0-16.2,2-24,6-7.7,3.9-14.4,9.3-20,15.8-5.6,6.7-9.6,14.2-11.6,22.4l-11.2,44.9h53.7Z"/>
        </g>
        <path class="st2" d="M543.7,488.3h-22.4l-7.1,28.4h22.4c26,0,67.7-8.3,69.2-14.2,1.5-5.9-36.2-14.2-62.1-14.2h0Z"/>
      </g>
    </g>
  </g>
</svg>